<?xml version="1.0" standalone="no"?>
<!DOCTYPE svg PUBLIC "-//W3C//DTD SVG 1.1//EN" "http://www.w3.org/Graphics/SVG/1.1/DTD/svg11.dtd" >
<svg xmlns="http://www.w3.org/2000/svg">
<metadata>
This is a custom SVG webfont generated by Font Squirrel.
Copyright   : Copyright c 1991 Adobe Systems Incorporated  All Rights ReservedITC Slimbach is a registered trademark of International Typeface Corporation
</metadata>
<defs>
<font id="ITCSlimbachMediumItalic" horiz-adv-x="1099" >
<font-face units-per-em="2048" ascent="1638" descent="-410" />
<missing-glyph horiz-adv-x="606" />
<glyph unicode=" "  horiz-adv-x="606" />
<glyph unicode="&#x09;" horiz-adv-x="606" />
<glyph unicode="&#xa0;" horiz-adv-x="606" />
<glyph unicode="!" horiz-adv-x="720" d="M160 86q0 55 35.5 91t95.5 36q125 0 125 -113q0 -55 -37 -91t-105 -36q-49 0 -81.5 33t-32.5 80zM295 410l104 921l45 41h156l35 -45l-227 -917l-25 -23h-70z" />
<glyph unicode="&#x22;" horiz-adv-x="909" d="M299 1356l25 16h147l25 -16l-72 -447l-18 -16h-60l-16 20zM618 1356l25 16h148l24 -16l-72 -447l-18 -16h-59l-17 20z" />
<glyph unicode="#" d="M66 424l32 90h103q53 0 68.5 9t33.5 61l113 313q6 16 -10.5 23.5t-47.5 7.5h-110l33 90h116q43 0 56.5 7t25.5 46l68 191l121 -5l-76 -215q-6 -16 4 -20t27 -4h149q20 0 31.5 2t21 15.5t12.5 19.5t13 37l61 170l123 -2l-78 -218q-6 -16 0.5 -20t28.5 -4h133l-31 -90h-104 q-51 0 -63.5 -11.5t-30.5 -60.5l-113 -313q-6 -18 2 -23.5t45 -5.5h119l-33 -90h-112q-47 0 -58.5 -9t-27.5 -57l-72 -198h-125l84 239q10 25 -25 25h-159q-45 0 -68 -64l-70 -200h-124l81 239q2 6 -1 11.5t-12 9.5t-25 4h-129zM414 543q-6 -20 2 -24.5t35 -4.5h12h119h25 q9 0 17.5 4t12.5 5t9 10.5t6 13.5t7.5 20.5t8.5 24.5l112 309q10 27 -49 27h-123q-43 0 -54 -12.5t-30 -61.5z" />
<glyph unicode="$" d="M100 231q0 10 15 35l78 113h32q0 -111 58.5 -202t117.5 -91q18 0 27.5 8t13.5 33l76 408q8 41 8 73q0 16 -44 41t-96 52.5t-96 95t-44 157.5q2 96 41 172t90 115t111.5 64.5t97.5 33t53 7.5q33 0 39 55l20 100h84l-20 -119q-2 -16 -2 -22t2 -10t12 -4t22.5 -1.5t37 -6.5 t51.5 -13q109 -35 136.5 -68.5t27.5 -111.5q0 -18 -17 -35l-74 -94h-26q-6 76 -49 160t-115 84q-20 0 -27.5 -8.5t-11.5 -34.5l-74 -420q-2 -14 29 -30.5t78 -38t93 -54.5t80 -94.5t34 -143.5q0 -117 -47.5 -205t-109.5 -133t-135 -72.5t-113 -33.5t-54 -6q-8 0 -16 -45 l-27 -142h-84l29 162q0 6 1 10t-2 7.5t-4 5.5t-8.5 5t-13.5 4t-18.5 5t-24.5 6t-30.5 7t-37.5 12q-106 33 -140 75.5t-34 132.5zM418 1044q0 -45 13 -81.5t31.5 -59t38 -38t33 -20.5t17.5 -5q25 0 33 49l65 350q2 8 -5 17.5t-17 9.5q-82 0 -145.5 -69t-63.5 -153zM524 106 q-6 -35 19 -34q90 0 166.5 69.5t76.5 188.5q0 53 -14 96t-34.5 67.5t-43 42t-39 23.5t-24.5 6q-20 0 -29 -39z" />
<glyph unicode="%" horiz-adv-x="2009" d="M326 850q0 223 105.5 372.5t283.5 149.5q133 0 194.5 -58.5t61.5 -203.5q0 -209 -106.5 -360.5t-299.5 -151.5q-109 0 -174 62.5t-65 189.5zM471 862q0 -96 32 -144t107 -48q55 0 99.5 49t68 122.5t35.5 145.5t12 129q0 184 -127 184q-76 0 -129 -70.5t-75.5 -167 t-22.5 -200.5zM512 -37l489 739l480 736l86 -54l-490 -737l-477 -737zM1114 225q0 223 105.5 373t283.5 150q133 0 194.5 -58.5t61.5 -204.5q0 -209 -106.5 -360.5t-298.5 -151.5q-109 0 -174.5 62.5t-65.5 189.5zM1260 238q0 -96 31.5 -144.5t107.5 -48.5q55 0 99 49 t67.5 123t36 145.5t12.5 129.5q0 184 -127 184q-76 0 -129 -70.5t-75.5 -167t-22.5 -200.5z" />
<glyph unicode="&#x26;" horiz-adv-x="1439" d="M84 340q0 123 62.5 211t136 124t136 67.5t62.5 54.5q0 4 -13 69.5t-13 122.5q0 184 119.5 297t275.5 113q121 0 189.5 -60.5t68.5 -173.5q0 -78 -43 -142.5t-103.5 -103t-121 -67.5t-103.5 -50.5t-43 -37.5q0 -66 131 -275q150 -242 201 -241q10 0 31.5 21.5t44 72.5 t24.5 115q0 90 -61 150.5t-127 64.5v33l125 51q2 0 19.5 7t25.5 7q74 0 117 -50t45 -145q0 -80 -26.5 -153.5t-59.5 -115.5t-59.5 -73.5t-26.5 -39.5q0 -45 96 -85t190 -63l-12 -45h-203q-84 0 -134 18.5t-71.5 37t-37.5 18.5q-10 0 -67.5 -24.5t-152 -50.5t-196.5 -26 q-199 0 -312.5 89.5t-113.5 277.5zM272 389q0 -131 97.5 -222t251.5 -91q72 0 142.5 20.5t70.5 42.5q0 18 -18.5 43t-59.5 76t-78 111q-37 61 -79 142t-64.5 125t-30.5 44q-63 0 -147.5 -83t-84.5 -208zM631 1079q0 -221 47 -221q53 0 165.5 90t112.5 205q0 76 -34.5 121 t-102.5 45q-80 0 -134 -73t-54 -167z" />
<glyph unicode="'" horiz-adv-x="606" d="M307 1356l25 16h147l25 -16l-72 -447l-18 -16h-60l-16 20z" />
<glyph unicode="(" horiz-adv-x="872" d="M219 279q0 492 208 834.5t542 375.5l-11 -55q-174 -41 -307 -224.5t-198.5 -429t-65.5 -506.5q0 -289 53.5 -403.5t200.5 -153.5l-8 -51q-113 6 -186.5 35t-127 96.5t-77 184.5t-23.5 297z" />
<glyph unicode=")" horiz-adv-x="872" d="M-57 -334l10 55q174 41 307 224.5t198.5 429.5t65.5 506q0 289 -53 403.5t-201 153.5l9 51q113 -6 186.5 -35t126.5 -96.5t76.5 -184t23.5 -296.5q0 -492 -207.5 -835t-541.5 -376z" />
<glyph unicode="*" d="M328 928l12 30l225 74q18 4 19 19q0 12 -19 20l-225 74l-12 31l57 96l33 8l170 -160q16 -12 26 -12q18 0 15 20l-49 246l24 25h101l26 -25l-49 -246q-4 -20 14 -20q10 0 27 12l170 160l33 -8l57 -96l-12 -31l-226 -74q-20 -8 -20 -20q0 -14 20 -19l226 -74l12 -30 l-57 -99l-33 -8l-170 162q-14 10 -27 10q-18 0 -14 -20l49 -246l-26 -22h-101l-24 22l49 246q4 20 -15 20q-12 0 -26 -10l-170 -162l-33 8z" />
<glyph unicode="+" horiz-adv-x="2009" d="M510 633v129h469v469h129v-469h469v-129h-469v-469h-129v469h-469z" />
<glyph unicode="," horiz-adv-x="606" d="M23 -170q70 18 127 63.5t57 118.5q0 43 -20.5 73t-42 41t-58.5 24l6 34l70 39q72 39 90 39q59 0 99 -46t40 -126q0 -76 -37 -135t-98 -94t-112.5 -54.5t-110.5 -31.5z" />
<glyph unicode="-" horiz-adv-x="606" d="M47 481l25 133h495l-24 -133h-496z" />
<glyph unicode="." horiz-adv-x="606" d="M104 86q0 53 36 90t96 37q125 0 124 -113q0 -55 -37.5 -91t-103.5 -36q-49 0 -82 33t-33 80z" />
<glyph unicode="/" horiz-adv-x="796" d="M-68 -307l435 848l428 858l100 -49l-432 -848l-428 -852z" />
<glyph unicode="0" d="M94 397q0 176 34 340t104.5 310.5t197.5 235.5t293 89q195 0 275.5 -101.5t80.5 -336.5q0 -121 -20.5 -248t-68.5 -256t-115.5 -229.5t-171 -164t-228.5 -63.5q-184 0 -282.5 93t-98.5 331zM301 418q0 -174 44 -266.5t163 -92.5q94 0 169 100.5t114.5 244t60 273.5 t20.5 216q0 66 -1 101.5t-6 90t-17 84t-33.5 60.5t-55.5 44t-81 13q-100 0 -177 -95t-118 -239.5t-61.5 -281.5t-20.5 -252z" />
<glyph unicode="1" d="M195 0l8 45l110 33q16 8 42 17t31 13.5t16.5 10.5t13.5 20.5t6 27.5t10 46l162 868q10 51 10 72q0 18 -13 29.5t-24.5 13.5t-40.5 4l-157 10l8 45l438 117l25 -29l-199 -1060q-23 -123 -23 -140q0 -41 66 -59l135 -39l-10 -45h-614z" />
<glyph unicode="2" d="M20 25q23 98 71 171.5t88 108.5t134.5 100.5t141.5 104.5q182 143 255.5 259t73.5 237q0 238 -196 237q-131 0 -266 -108l-29 32q6 6 32.5 37t39 42t40 37t51 37t58.5 25.5t75 20.5t87 6q315 0 315 -311q0 -100 -32.5 -185t-99 -157t-123 -118t-147.5 -109.5t-126 -92.5 q-152 -121 -152 -170q0 -39 18.5 -51t69.5 -12h252q115 0 162 38t94 132h51l-32 -121q-4 -14 -11.5 -44t-10.5 -40t-10 -31.5t-11 -29t-12.5 -22.5t-15.5 -19t-18.5 -12.5t-24.5 -10.5t-30.5 -4t-38.5 -2h-702z" />
<glyph unicode="3" d="M76 137q0 8 14 37l66 117h32q53 -231 273 -232q125 0 197.5 94.5t72.5 223.5q0 279 -321 278q-84 0 -109 -6l-16 23l55 86q18 23 49 22h70q131 0 226 73t95 198q0 92 -50 144t-138 52q-61 0 -114.5 -17.5t-79 -33.5t-64.5 -47l-27 33q4 4 37 39.5t44 46t47 37t65.5 37 t79 20.5t104.5 10q285 0 285 -266q0 -88 -44 -155.5t-97.5 -98.5t-97.5 -55.5t-44 -34.5q0 -18 25.5 -30.5t62.5 -26t75 -37t63.5 -78.5t25.5 -139q0 -215 -164 -346.5t-395 -131.5q-303 0 -303 164z" />
<glyph unicode="4" d="M51 397l33 119q4 12 46 68.5t149.5 187.5t255.5 301q211 248 284 264l160 35l18 -22l-153 -820q0 -27 15 -32.5t48 -5.5h148l12 -23l-72 -94h-110q-51 0 -62.5 -13.5t-21.5 -68.5l-43 -223q-10 -51 -23 -62q-10 -6 -39 -12l-133 -23l-14 21l63 344q8 37 -71 37h-473z M242 539q0 -33 15 -41.5t62 -8.5h246q57 0 69.5 12.5t22.5 76.5l107 573q6 27 -14 27q-37 0 -272.5 -298t-235.5 -341z" />
<glyph unicode="5" d="M90 135q0 4 14 33l68 117h35q66 -225 270 -226q109 0 188.5 101.5t79.5 242.5q0 63 -21.5 109.5t-62 72t-80.5 42t-95.5 34t-86.5 33.5q-41 20 -64.5 38t-32.5 43.5t-11 42t-2 54.5q0 59 39 250t53 203l25 21h454q86 0 112.5 12t78.5 67l28 -18l-59 -127 q-25 -55 -54.5 -77.5t-84.5 -22.5h-375q-49 0 -71.5 -60.5t-22.5 -111.5q0 -66 18.5 -105t57 -57.5t79.5 -27.5t104.5 -24.5t114.5 -39.5q102 -47 134 -105.5t32 -167.5q0 -229 -167 -368.5t-425 -139.5q-270 0 -270 162z" />
<glyph unicode="6" d="M113 430q0 152 60 317.5t161.5 305t250 229.5t308.5 90h184l-18 -45q-225 -14 -350 -115q-188 -143 -289 -371.5t-101 -416.5q0 -365 222 -365q125 0 197.5 120t72.5 245q0 68 -4 108.5t-21.5 92t-58.5 77t-106.5 25.5t-147.5 -29l4 56q2 0 41 17t65.5 27.5t70.5 20.5 t79 10q150 0 217.5 -79.5t67.5 -253.5q0 -215 -151.5 -369t-366.5 -154q-199 0 -293 108.5t-94 348.5z" />
<glyph unicode="7" d="M238 1047q8 29 23 93t24.5 87.5t30 58.5t52 47.5t78.5 12.5h656l20 -25q-27 -156 -70.5 -242t-166.5 -233q-453 -551 -453 -768q0 -72 8 -111l-26 -20l-131 80q-41 25 -41 102q0 16 2 30.5t5 27t13 28.5t18.5 29.5t30 40t39 48t52 65.5t65.5 81q25 29 75 89.5t99 121 t94 123.5q90 125 125 196.5t35 131.5q0 39 -92 39h-303q-72 0 -116 -22.5t-60.5 -46.5t-47.5 -85z" />
<glyph unicode="8" d="M111 317q0 96 47 175t104 117t104.5 69t47.5 41q0 14 -35 43t-70 85t-35 136q0 172 133.5 280.5t333.5 108.5q137 0 218 -71.5t81 -202.5q0 -80 -38.5 -149.5t-87 -105.5t-87.5 -65.5t-39 -40.5q0 -14 31 -35.5t68 -47t67.5 -88t30.5 -148.5q0 -193 -150.5 -319 t-359.5 -126q-164 0 -264 86t-100 258zM283 348q0 -129 71.5 -209t180 -80t178 83t69.5 192q0 63 -28.5 121.5t-69.5 96.5t-86 66.5t-74.5 42t-38.5 13.5q-20 0 -67 -40t-91 -120t-44 -166zM455 1069q0 -55 26.5 -105.5t63.5 -82t75.5 -56t63.5 -35t29 -10.5q41 0 106.5 88 t65.5 176q0 109 -57.5 175.5t-149.5 66.5q-96 0 -159.5 -65.5t-63.5 -151.5z" />
<glyph unicode="9" d="M111 -27l18 45q207 14 334 115q186 141 287.5 371.5t101.5 417.5q0 365 -205 364q-125 0 -197.5 -119.5t-72.5 -244.5q0 -49 2 -78t12 -69t29.5 -61.5t56.5 -38t90 -16.5q66 0 148 29l-4 -55q-2 0 -41 -17.5t-65.5 -27.5t-71 -20.5t-78.5 -10.5q-147 0 -216 71.5 t-69 221.5q0 215 151.5 368.5t366.5 153.5q186 0 278.5 -109.5t92.5 -347.5q0 -152 -60.5 -317.5t-162 -304.5t-250 -229.5t-307.5 -90.5h-168z" />
<glyph unicode=":" horiz-adv-x="606" d="M104 86q0 53 36 90t96 37q125 0 124 -113q0 -55 -37.5 -91t-103.5 -36q-49 0 -82 33t-33 80zM248 864q0 53 35.5 90t95.5 37q125 0 125 -112q0 -55 -38 -91t-104 -36q-49 0 -81.5 32.5t-32.5 79.5z" />
<glyph unicode=";" horiz-adv-x="606" d="M23 -170q70 18 127 63.5t57 118.5q0 43 -20.5 73t-42 41t-58.5 24l6 34l70 39q72 39 90 39q59 0 99 -46t40 -126q0 -76 -37 -135t-98 -94t-112.5 -54.5t-110.5 -31.5zM260 864q0 53 36 90t95 37q125 0 125 -112q0 -55 -38 -91t-103 -36q-49 0 -82 32.5t-33 79.5z" />
<glyph unicode="&#x3c;" horiz-adv-x="2009" d="M526 641v111l996 442v-158l-793 -340l793 -338v-157z" />
<glyph unicode="=" horiz-adv-x="2009" d="M510 481v129h1067v-129h-1067zM510 762v129h1067v-129h-1067z" />
<glyph unicode="&#x3e;" horiz-adv-x="2009" d="M526 201v157l793 338l-793 340v158l996 -442v-111z" />
<glyph unicode="?" horiz-adv-x="757" d="M205 598q0 66 20 74q96 41 250 188q51 47 88 111.5t37 120.5q0 86 -45 134t-123 48q-90 0 -190 -72l-27 41q6 6 36 31.5t44 36t46 31t57.5 30.5t63.5 18.5t77 8.5q256 0 256 -232q0 -74 -41 -151.5t-82 -118.5q-2 -2 -50.5 -39t-95.5 -76t-89 -92t-42 -92 q0 -82 58.5 -115.5t115.5 -33.5q4 0 16.5 3t16.5 3l2 -11l-31 -45q-78 -20 -143 -20q-100 0 -160.5 64.5t-64.5 154.5zM209 86q0 55 36 91t95 36q125 0 125 -113q0 -55 -38 -91t-103 -36q-49 0 -82 33t-33 80z" />
<glyph unicode="@" horiz-adv-x="2048" d="M195 406q0 365 274 639t643 274q315 0 528 -186.5t213 -477.5q0 -268 -177 -461.5t-398 -193.5q-143 0 -150 145q-115 -133 -266 -133q-117 0 -193.5 77t-76.5 216q0 147 75.5 303t199.5 261.5t253 105.5q59 0 103.5 -16.5t73 -47t39 -45t24.5 -43.5l45 111h176 l-170 -424q-125 -305 -125 -348q0 -55 62 -56q133 0 271 156t138 393q0 256 -185.5 407.5t-451.5 151.5q-195 0 -378 -116.5t-295.5 -305t-112.5 -384.5q0 -256 194.5 -422t518.5 -166q350 0 591 203l9 6l53 -47q-66 -74 -250 -164t-412 -90q-367 0 -605 189.5t-238 488.5z M754 233q0 -137 143 -137q20 0 39.5 4t37 12.5t31 16.5t27.5 23l24 23q9 9 21.5 26.5t16.5 24.5l14 24.5t12 19.5q78 125 125 280t47 214q0 51 -33.5 91t-93.5 40q-92 0 -191.5 -126t-159.5 -281t-60 -255z" />
<glyph unicode="A" horiz-adv-x="1402" d="M-20 0l8 45l67 29q33 12 58.5 45t87.5 139l530 916q61 104 105 184l24 14h131l21 -14q2 -6 21.5 -137t37.5 -242l131 -793q0 -6 2 -17l3 -16.5t3 -14.5t4.5 -14t7.5 -11.5t10 -10.5t14 -9t20 -9l96 -39l-10 -45h-527l9 45l110 41q51 16 51 57q0 18 -8 76l-41 266 q-2 10 -3 17.5t-3 13.5t-5 10t-4 7.5t-6 5.5t-8.5 3t-10.5 1h-11h-14h-17h-295q-51 0 -66.5 -8.5t-33.5 -42.5l-152 -289q-29 -57 -28 -76q0 -31 45 -43l117 -39l-9 -45h-462zM565 659q0 -18 8.5 -22t34.5 -4h248q23 0 33 1t18 7t8 18q0 4 -1 11.5t-3 16.5t-2 13l-57 383 q-6 47 -23 47q-14 0 -34 -40l-215 -394q-15 -25 -15 -37z" />
<glyph unicode="B" horiz-adv-x="1251" d="M-18 0l8 45l76 29q20 8 34.5 16t25.5 20.5t16 19.5t11.5 27.5t8.5 32t7 44t9 51.5l170 923q6 39 -11.5 55.5t-70.5 36.5l-78 27l9 45h702q147 0 230 -50t83 -194q0 -111 -54 -187.5t-118.5 -104t-119 -49t-54.5 -37.5q2 -20 49.5 -34t103.5 -27t102 -68.5t46 -151.5 q0 -238 -155.5 -353.5t-427.5 -115.5h-602zM383 231q-5 -24 -5 -44q0 -51 31 -74q42 -33 179 -33q160 0 252 83t92 249t-79 224t-230 58q-109 0 -135.5 -17.5t-38.5 -88.5zM492 823q0 -49 55 -49q184 0 268 31q74 29 124 112.5t50 163.5q0 115 -52 163t-183 48 q-94 0 -130 -9t-46.5 -26.5t-20.5 -76.5z" />
<glyph unicode="C" horiz-adv-x="1212" d="M98 485q0 190 47.5 351t142.5 289t257 201t377 73q168 0 264 -53.5t96 -161.5q0 -23 -22 -60l-76 -131h-39q-43 315 -328 316q-106 0 -191 -54.5t-138.5 -138.5t-89.5 -191.5t-50 -207t-14 -191.5q0 -217 87 -327.5t279 -110.5q248 0 447 248l33 -35q-12 -18 -38 -62 t-38 -62.5t-39 -54.5t-48.5 -51.5t-59 -39t-77.5 -32.5t-97.5 -17.5t-125.5 -8.5q-283 0 -421 113.5t-138 398.5z" />
<glyph unicode="D" horiz-adv-x="1439" d="M-18 0l8 45l76 29q39 14 60 47t29.5 62.5t20.5 103.5l172 921q8 59 -82 92l-78 27l9 45h712q137 0 223.5 -16.5t157 -66.5t101 -146t30.5 -248q0 -190 -44 -347t-135 -282t-247.5 -195.5t-367.5 -70.5h-645zM377 211q-2 -13 -3 -25q0 -30 15 -51q20 -29 73.5 -40 t88.5 -13t104 -2q188 0 310 111.5t171.5 284.5t49.5 407q0 123 -11.5 191.5t-50.5 122.5t-112.5 74.5t-198.5 20.5q-119 0 -166 -8t-63.5 -27.5t-26.5 -74.5z" />
<glyph unicode="E" horiz-adv-x="1212" d="M-23 0l9 45l80 29q39 12 61.5 39.5t26.5 44t10 53.5l182 999q8 61 -80 93l-78 24l9 45h1011l13 -14l-60 -318h-53l-57 138q-29 70 -71 92t-185 22q-102 0 -149.5 -9t-63 -27.5t-23.5 -61.5l-72 -393q-4 -27 0.5 -34t22.5 -2t22 5h177q49 0 66.5 8t47.5 51l82 115h47 l-82 -442h-47l-37 112q-14 43 -29.5 54.5t-64.5 11.5h-172q-20 0 -32.5 -3t-19.5 -16.5t-8 -19.5t-7 -37l-76 -416q-4 -27 -1 -46t20.5 -30.5t33.5 -18.5t52 -10t60 -3h74h17q141 0 190 24.5t117 112.5l127 162h68l-68 -365l-16 -14h-1074z" />
<glyph unicode="F" d="M-18 0l8 45l76 29q45 14 66.5 34.5t25.5 37t14 69.5l180 991q1 6 1 12q0 53 -87 82l-78 27l9 45h987l12 -14l-59 -318h-54l-55 131q-23 53 -43 76t-66.5 34t-140.5 11q-147 0 -177 -14t-42 -84l-76 -422q0 -14 8.5 -21.5t16.5 -8.5t27 -1h143q53 0 71.5 10.5t51.5 57.5 l73 106h48l-82 -442h-47l-33 105q-14 47 -29.5 60t-64.5 13h-144q-43 0 -55 -12t-21 -55l-75 -418q-2 -8 -2 -15.5t-1 -12.5t2 -10t3 -8t5 -6t7 -5.5t10 -5.5t12.5 -5t14.5 -5t16 -5l123 -43l-8 -45h-571z" />
<glyph unicode="G" horiz-adv-x="1402" d="M117 500q0 434 234.5 666.5t606.5 232.5q168 0 284 -51.5t116 -149.5q0 -20 -21 -61l-65 -144h-37q-10 51 -29.5 98.5t-59.5 99.5t-112.5 85t-167.5 33q-125 0 -227 -73t-162.5 -188.5t-92.5 -246.5t-32 -258q0 -260 95.5 -370t320.5 -110q119 0 164 26t53 77l47 237 q2 14 -15.5 27.5t-45.5 22.5l-150 41l8 45h553l-8 -45l-67 -27q-51 -20 -62 -70l-59 -311l-19 -20q-8 -2 -52 -16.5t-54 -17.5t-50 -15.5t-57.5 -15.5t-55.5 -10t-65.5 -10.5t-66.5 -5.5t-80 -2q-283 0 -426 126.5t-143 400.5z" />
<glyph unicode="H" horiz-adv-x="1478" d="M-18 0l8 45l73 29q59 23 74 47t29 110l182 979q1 5 1 11q0 56 -83 82l-78 24l9 45h542l-8 -45l-76 -29q-84 -33 -98 -108l-70 -377q-2 -16 1.5 -24.5t17.5 -12.5t22 -4h31h469q55 0 64.5 7t17.5 59l70 372q1 6 1 12q0 51 -83 81l-76 24l8 45h541l-8 -45l-78 -29 q-14 -6 -26.5 -11t-22 -12t-15.5 -11t-11 -14.5t-8 -14.5t-6 -19.5t-5 -20.5t-5.5 -26.5t-5.5 -29.5l-180 -975q-8 -18 -3 -32.5t4 -21t11.5 -13.5t18.5 -9t24.5 -7t30.5 -9l78 -27l-8 -45h-545l10 45l74 29q39 8 57.5 24.5t24.5 32.5t14 64l82 444q4 23 -13.5 33t-45.5 10 h-471q-57 0 -70.5 -12.5t-23.5 -65.5l-82 -442q-2 -12 -3.5 -20.5t1 -15.5t3.5 -12t7 -10.5t8 -7.5t12 -6l16 -6q5 -2 20 -6t22 -6l82 -27l-11 -45h-542z" />
<glyph unicode="I" horiz-adv-x="645" d="M-18 0l8 45l73 29q51 16 66.5 38.5t28.5 94.5l188 1003q6 37 -12.5 54.5t-67.5 35.5l-80 27l11 45h540l-10 -45l-74 -31q-80 -35 -94 -104l-192 -1032q-2 -10 -2 -19.5t2 -16.5t4 -13.5t8 -10.5t11 -7t14.5 -7t14.5 -5t17 -5l19 -6l75 -25l-10 -45h-538z" />
<glyph unicode="J" horiz-adv-x="833" d="M-37 96q0 6 21 47l61 109h31q6 -37 18 -73t50 -76t92 -40q20 0 37.5 5.5t30.5 16.5t24.5 22.5t20.5 32t14.5 32.5t12.5 38t9 38t7 39.5t7 34.5l168 886q4 20 1 33.5t-19.5 25t-23.5 14.5t-38 15l-86 31l9 45h544l-8 -45l-74 -31q-55 -16 -69.5 -35.5t-24.5 -74.5 l-137 -725q-47 -252 -153.5 -370t-333.5 -118q-84 0 -137.5 32t-53.5 91z" />
<glyph unicode="K" horiz-adv-x="1327" d="M-23 0l11 45l73 29q18 8 33 15t25 18.5t15 17.5t10.5 21.5t6.5 21.5t4 27.5t5 27.5l188 991q4 23 -18.5 47.5t-65.5 38.5l-76 27l9 45h534l-8 -45l-82 -33q-31 -14 -49.5 -29.5t-22.5 -26.5t-8 -32l-80 -424q-6 -33 15 -32q16 0 28 4l64 16q43 10 70.5 26.5t72.5 67.5 l258 275q80 84 80 112q0 14 -39 37l-86 39l8 45h459l-8 -45l-68 -35q-63 -35 -188 -145l-318 -299q-57 -57 -57 -76q0 -27 25 -72l178 -333q82 -156 135 -221.5t127 -106.5l-10 -39h-191q-18 0 -32.5 1t-27.5 6t-21.5 8t-19.5 15l-15 15q-4 4 -15.5 21.5t-14.5 22.5 t-15.5 28.5t-16.5 32.5l-240 452q-6 8 -12 21.5t-11 21.5l-10 17q-5 8 -12.5 11t-15.5 1l-63 -19q-29 -8 -37 -24.5t-15 -55.5l-80 -413q-6 -39 10.5 -55.5t61.5 -30.5l86 -31l-10 -45h-533z" />
<glyph unicode="L" horiz-adv-x="1175" d="M-18 0l8 45l76 29q55 20 69.5 41.5t28.5 97.5l184 987q8 39 -11.5 60.5t-70.5 39.5l-78 27l9 45h561l-8 -45l-99 -35q-53 -18 -69.5 -45.5t-26.5 -79.5l-180 -972q-6 -33 7 -56.5t32.5 -35t57.5 -16.5t59.5 -6t60.5 -1h14q113 0 173.5 23.5t115.5 95.5l139 180h68 l-68 -365l-16 -14h-1036z" />
<glyph unicode="M" horiz-adv-x="1781" d="M-59 0l8 45l69 29q63 27 80 55.5t49 157.5l209 817q27 100 27 127q0 10 -4 18t-9 14.5t-15.5 12.5t-15.5 8t-18.5 8t-15.5 6l-80 29l8 45h396l18 -16q4 -18 11.5 -57t18.5 -95.5t17 -91.5l142 -733q12 -66 28 -66q14 0 45 60l269 491q158 287 260 492l20 16h410l-8 -45 l-82 -33q-14 -6 -25 -11l-18 -9q-8 -4 -14.5 -12.5t-11.5 -12.5t-9 -16t-6 -17.5t-5 -25t-5.5 -28.5t-6.5 -35.5t-6 -41.5l-145 -925q-6 -10 -2 -21.5t2 -17.5t6 -13.5t8 -10.5t11.5 -8t15.5 -7t17 -7t20 -7l67 -29l-8 -39h-545l10 45l95 31q63 20 81.5 51t30.5 115l138 862 q0 35 -17 35q-18 0 -39 -41l-291 -541l-292 -543l-19 -14h-104l-17 14l-98 512l-98 512q-2 12 -4 27.5t-4.5 23t-4.5 15.5t-6 10t-12 2q-12 0 -33 -76q-57 -221 -121.5 -522t-64.5 -348q0 -41 12 -55.5t55 -28.5l113 -41l-8 -45h-479z" />
<glyph unicode="N" horiz-adv-x="1439" d="M-16 0l8 45l74 29q20 8 35.5 19t24.5 20.5t16.5 33t10.5 35t9 50t10 55.5l174 887q2 8 2 15q0 64 -104 114l-56 24l9 45h290l31 -16l133 -246l408 -745q23 -39 39 -39t26 57l150 825q6 8 2 18.5t-2 14.5t-6 11.5t-9.5 9.5t-12.5 7t-15 6t-18.5 6t-20.5 7l-113 39l8 45 h480l-8 -45l-74 -31q-16 -6 -28.5 -14t-21 -12t-15.5 -14.5t-11 -14.5t-8 -18.5t-5 -16.5t-5.5 -21.5t-4.5 -23.5l-133 -633q-88 -420 -94 -514l-16 -14h-107l-24 14l-133 248l-412 739q-27 31 -35 33q-10 0 -18 -43l-148 -827q-1 -9 -1 -16q0 -36 32 -50q10 -4 51 -16 l121 -37l-8 -45h-477z" />
<glyph unicode="O" horiz-adv-x="1439" d="M92 481q0 436 229.5 677t604.5 241q258 0 375.5 -131t117.5 -412q0 -244 -92 -441.5t-279.5 -319.5t-439.5 -122t-384 118t-132 390zM328 498q0 -215 84 -325t274 -110q127 0 228.5 79t156.5 201t84 250t29 245q0 84 -6.5 147.5t-27 127t-55 104t-96 66.5t-145.5 26 q-133 0 -238.5 -73t-166 -192.5t-91 -259t-30.5 -286.5z" />
<glyph unicode="P" horiz-adv-x="1175" d="M-18 0l8 45l76 29q53 20 67 40.5t25 75.5l190 1018q4 33 -13.5 53.5t-68.5 38.5l-78 27l9 45h598q113 0 180 -11t121.5 -46t77 -101.5t22.5 -175.5q0 -63 -15.5 -126.5t-54.5 -131t-99 -119t-158.5 -84t-221.5 -32.5q-10 0 -30.5 1t-30.5 1l-41 61l10 19q14 -2 61 -2 q164 0 260.5 103t96.5 288q0 145 -41 210.5t-184 65.5q-111 0 -144 -19.5t-43 -72.5l-190 -1036q-6 -18 -3 -31.5t4 -21t12 -12.5t18.5 -7l22.5 -6t28 -8l90 -33l-8 -45h-553z" />
<glyph unicode="Q" horiz-adv-x="1439" d="M96 479q0 418 226.5 669t625.5 251q258 0 365.5 -137.5t107.5 -401.5q0 -164 -34.5 -301t-90 -224t-123 -153.5t-135 -102.5t-123 -58.5t-90 -33t-34.5 -14.5q0 -45 172 -110.5t292 -95.5l-32 -41q-98 -4 -148 -5q-186 0 -518 177v26q23 16 23 35q0 10 -20.5 14 t-59.5 6.5t-66 10.5q-88 27 -143 57.5t-103.5 83.5t-70 138t-21.5 210zM332 426q0 -362 350 -363q133 0 234.5 75t157.5 195t84 250t28 261q0 248 -71 356.5t-263 108.5q-137 0 -241.5 -78t-163 -208t-87 -280.5t-28.5 -316.5z" />
<glyph unicode="R" horiz-adv-x="1288" d="M0 0l8 45l76 29q78 31 98 139l185 989q8 39 -11.5 58.5t-70.5 39.5l-76 27l8 45h604q78 0 125 -3t104.5 -17.5t87 -41t51 -76.5t21.5 -124q0 -96 -37.5 -172t-93 -117t-110 -69.5t-92 -46t-37.5 -29.5q0 -31 73 -170q66 -125 94.5 -177.5t73.5 -128t76 -110.5t62 -51 l-7 -39h-192q-61 0 -96 29.5t-66 97.5l-184 397q-6 12 -17.5 37t-14.5 31t-12 20.5t-17.5 17.5t-20.5 7t-29 4h-33q-39 0 -50 -15.5t-19 -64.5l-74 -399q-2 -14 -3 -24.5t3 -18.5t5 -12.5t12.5 -10.5t15.5 -7t22.5 -8t24.5 -9l70 -27l-9 -45h-528zM500 761q0 -9 1 -15.5 t6 -10.5t10 -6t15 -2h18h22h26q190 0 289.5 100.5t99.5 262.5q0 102 -58.5 152t-189.5 50q-98 0 -123.5 -17.5t-35.5 -72.5l-78 -420q-2 -12 -2 -21z" />
<glyph unicode="S" horiz-adv-x="1060" d="M35 186q0 33 26 80l72 123h39q4 -39 13.5 -76t32 -84t55 -81.5t89 -59.5t127.5 -25q117 0 193 75t76 184q0 74 -32 129t-82 89.5t-110.5 63.5t-122 60.5t-111.5 70.5t-82 102.5t-32 149.5q0 193 154 302.5t403 109.5q129 0 212 -53.5t83 -126.5q0 -27 -16 -60l-70 -141 h-39q-49 291 -276 291q-113 0 -185.5 -63.5t-72.5 -164.5q0 -90 60.5 -152.5t145.5 -102.5t170 -84t145.5 -122.5t60.5 -189.5q0 -207 -154 -332t-397 -125q-166 0 -270.5 56.5t-104.5 156.5z" />
<glyph unicode="T" horiz-adv-x="1288" d="M158 1036l59 322l16 14h1149l13 -14l-60 -318h-63l-49 140q-25 72 -53.5 92t-127 20t-123 -13t-34.5 -65l-195 -1050q0 -16 -3 -25.5t4 -17.5t9 -12.5t13.5 -8.5t17.5 -6t20.5 -6t22.5 -6l107 -37l-9 -45h-608l8 45l115 41q55 16 71.5 42t30.5 105l187 1008 q4 25 -21.5 38t-93.5 13q-72 0 -115 -16t-57 -30.5t-51 -63.5l-109 -146h-71z" />
<glyph unicode="U" horiz-adv-x="1402" d="M195 1327l8 45h530l-8 -45l-66 -29q-16 -8 -28.5 -15t-21.5 -13t-16 -15.5t-10 -13.5t-8 -16l-5 -16q-1 -3 -4 -17t-3 -18q-152 -776 -151 -863q0 -123 76.5 -185.5t187.5 -62.5q72 0 126 13.5t91 42t61.5 60.5t41 83t25.5 94t21 111q2 16 5 25l129 714q4 27 -16.5 54.5 t-63.5 42.5l-78 24l8 45h520l-8 -45l-74 -29q-25 -10 -42 -25.5t-27.5 -29.5t-18.5 -38.5t-11 -38t-7 -42t-6 -39.5l-101 -536q-23 -121 -47 -201t-72.5 -156.5t-117 -120.5t-175 -71t-253.5 -27q-229 0 -308 94.5t-79 294.5q0 98 78.5 471t78.5 377q0 41 -16 58.5t-68 34.5 z" />
<glyph unicode="V" horiz-adv-x="1366" d="M174 1327l8 45h541l-8 -45l-103 -43q-12 -6 -29.5 -11t-24.5 -8t-12 -13.5t-3 -26.5l119 -922q10 -74 22 -74q16 0 47 64l316 622q145 287 145 328q0 18 -57 43l-107 41l8 45h457l-8 -45l-39 -18q-23 -10 -43.5 -28.5t-44 -48.5t-42 -57.5t-46 -76.5t-47 -84t-54 -102.5 t-59.5 -110.5l-270 -498l-152 -289l-16 -14h-160l-12 14q-6 25 -21.5 156t-23.5 178l-115 742q-4 31 -9 72.5t-7 54t-10.5 32t-21.5 27.5t-38 18z" />
<glyph unicode="W" horiz-adv-x="2009" d="M168 1327l8 45h531l-9 -45l-96 -37q-51 -20 -57 -35q-6 -12 -6 -36q0 -23 59 -897q0 -68 23 -68q14 0 38 51l265 514q121 231 120 268v66q-4 53 -8 74q-4 27 -17 41t-50 28l-78 31l8 45h514l-8 -45l-98 -37q-4 -2 -11.5 -5t-10.5 -4t-10 -4t-9 -5t-7.5 -6t-6.5 -7.5 t-4 -9.5t-2 -11t1 -13l121 -897q0 -4 2 -18.5t3 -20.5t3 -15.5t7.5 -13.5t11.5 -4q16 0 41 63q72 172 141.5 337t106 251t68.5 160t43 110.5t11 57.5q0 35 -55 55l-104 37l8 45h450l-8 -45l-51 -24q-18 -10 -32.5 -19.5t-28 -26t-22.5 -28.5t-23.5 -42t-23.5 -49.5 t-30.5 -67.5t-38.5 -81l-311 -672q-10 -20 -133 -303l-19 -14h-163l-15 14q-2 8 -9 77t-15 120l-84 588q-8 57 -27 57q-14 0 -45 -55l-203 -393l-94 -189q-68 -135 -104 -205l-21 -14h-168l-16 14q-2 31 -12 168l-66 819q-12 166 -27.5 218.5t-62.5 72.5z" />
<glyph unicode="X" horiz-adv-x="1327" d="M-70 0l9 45l79 31q41 16 61.5 30.5t57.5 57.5l414 475l14 16q16 14 23.5 25.5t7.5 24.5q0 18 -25 71l-184 391q-41 84 -65 103q-14 12 -37 22l-82 35l8 45h537l-9 -45l-104 -39q-51 -20 -51 -37q0 -18 26 -75l117 -254q25 -55 39 -56q16 0 43 37l231 299q37 47 37 62 q0 20 -37 36l-61 27l8 45h420l-8 -45l-66 -24q-51 -20 -70.5 -36t-72.5 -75l-324 -361q-6 -8 -23.5 -23t-25.5 -27.5t-8 -26.5q0 -16 6 -32.5t19.5 -38t17.5 -32.5l209 -446q23 -49 33 -66.5t30.5 -35t57.5 -29.5l80 -29l-9 -45h-557l11 45l100 35q33 10 45 19.5t12 29.5 q0 10 -33.5 86t-88 189.5t-64.5 136.5q-25 53 -37 53q-14 0 -59 -57l-265 -344q-45 -63 -45 -84q0 -16 45 -35l84 -29l-8 -45h-463z" />
<glyph unicode="Y" horiz-adv-x="1366" d="M174 1327l8 45h527l-9 -45l-106 -43q-6 -2 -18.5 -7t-17.5 -8t-10 -9.5t-5 -14.5q0 -18 28 -100l152 -434q23 -68 39 -68q14 0 45 49l240 379q90 139 90 168q0 18 -9.5 26.5t-35.5 20.5l-95 41l9 45h446l-8 -45l-58 -27q-12 -6 -21 -11t-16.5 -9t-15.5 -10l-12 -9 q-4 -3 -12.5 -12.5t-11.5 -12.5t-11 -15.5t-12 -16.5t-15.5 -20.5t-15.5 -22.5l-387 -551q-74 -106 -88 -190l-45 -256q2 -14 -2 -22.5t3 -16.5t7 -11t12.5 -8.5t16.5 -7.5t20.5 -7t24.5 -9l104 -37l-8 -45h-608l8 45l121 41q49 14 64.5 29.5t23.5 58.5l47 246q14 72 14 106 q0 23 -32 111l-203 522q-4 10 -11.5 30.5t-10.5 28t-10 20.5t-14 20.5t-17.5 16.5t-24.5 15z" />
<glyph unicode="Z" horiz-adv-x="1251" d="M-35 33q68 68 295 337t434 525q35 43 87.5 105.5t81 98.5t59 74.5t44 58t13.5 25.5q0 12 -3 17.5t-21.5 10.5t-53.5 6t-102 1q-197 0 -252 -15t-117 -93l-121 -156l-73 -2l61 332l18 14h996l16 -33q-299 -342 -648 -761.5t-349 -466.5q0 -20 52 -25.5t210 -5.5 q195 0 260.5 20.5t126.5 104.5l137 184h82l-70 -375l-18 -14h-1126z" />
<glyph unicode="[" horiz-adv-x="720" d="M111 -268q119 580 319 1718l27 25l338 24l-11 -53l-125 -37q-53 -18 -73.5 -42t-32.5 -87l-262 -1411q-12 -63 35 -82l159 -55l-8 -45l-348 18z" />
<glyph unicode="\" horiz-adv-x="796" d="M55 1350l101 49l305 -858l311 -848l-102 -43l-305 852z" />
<glyph unicode="]" horiz-adv-x="720" d="M-31 -319l11 53l124 37q53 18 74 41.5t33 87.5l262 1411q12 63 -35 82l-159 55l8 45l348 -18l18 -27q-119 -580 -319 -1718l-27 -25z" />
<glyph unicode="^" d="M78 555l436 817h125l424 -817h-131l-359 684l-364 -684h-131z" />
<glyph unicode="_" horiz-adv-x="1024" d="M0 -154h1024v-102h-1024v102z" />
<glyph unicode="`" horiz-adv-x="606" d="M154 1395l86 104h30l250 -354l-43 -39z" />
<glyph unicode="a" horiz-adv-x="1136" d="M55 211q0 123 35 257t103.5 260t190.5 208t275 82q96 0 148 -10q14 -2 33.5 -6.5t25.5 -4.5q18 0 64 17l71 22l21 -20l-154 -649q-20 -88 -20 -160q0 -41 30.5 -71t71.5 -30q53 0 185 60l-13 -60q-184 -133 -286 -133q-49 0 -106.5 46.5t-78.5 46.5q-4 0 -139 -46.5 t-227 -46.5q-98 0 -164 61.5t-66 176.5zM268 213q0 -47 44 -94t91 -47q45 0 83 10t65 24.5t48.5 42t33.5 49t23.5 59.5t16.5 60.5t13 64.5t12 60l76 344q6 27 6 49q0 46 -26 69q-39 34 -101 34q-104 0 -184 -79t-121 -198.5t-60.5 -233.5t-19.5 -214z" />
<glyph unicode="b" horiz-adv-x="1060" d="M92 121q0 18 10.5 68.5t29 128t28.5 128.5l164 826q4 18 -12.5 39.5t-55.5 31.5l-84 23l6 33q33 6 110 25.5t139 35t81 15.5q16 0 32.5 -16.5t16.5 -24.5q0 -16 -14 -74l-90 -373q-6 -29 -1 -37t21 -8q10 0 115 39q115 37 225 37q61 0 101 -23.5t58.5 -68.5t25 -88 t6.5 -101q0 -143 -32 -272t-99.5 -242.5t-188.5 -181.5t-283 -68q-98 0 -203.5 41t-105.5 107zM305 223q0 -37 9.5 -70.5t48 -66.5t104.5 -33q94 0 163.5 85t101.5 211t45.5 226.5t13.5 176.5q0 68 -39 118t-95 50q-70 0 -123 -31t-86.5 -90.5t-55 -123t-38.5 -149.5 q-49 -227 -49 -303z" />
<glyph unicode="c" horiz-adv-x="833" d="M49 317q0 317 168 509t418 192q104 0 160.5 -39t56.5 -111q0 -12 -21 -47l-100 -143h-37q0 260 -153 260q-82 0 -148.5 -100.5t-98.5 -226.5t-32 -232q0 -145 44 -218t159 -73q125 0 319 113l-14 -72q-231 -156 -432 -156q-289 0 -289 344z" />
<glyph unicode="d" horiz-adv-x="1136" d="M59 250q0 145 42 281.5t118 245t197 175t266 66.5h72q53 0 62 9t20 63l32 180l2 14q0 43 -57 57l-102 27l6 33q305 74 346 74q16 0 28.5 -11.5t12.5 -27.5q0 -14 -6 -42t-21.5 -87.5t-27.5 -114.5l-170 -782q-29 -131 -29 -193q0 -119 100 -119q55 0 185 68l-13 -60 q-190 -133 -284 -133q-47 0 -101.5 46.5t-72.5 46.5q-14 0 -146.5 -46.5t-247.5 -46.5q-96 0 -153.5 71t-57.5 206zM272 287q0 -106 34 -160.5t116 -54.5q70 0 122 34.5t82.5 99t47 120t31.5 131.5l63 338q3 17 3 32q0 40 -22 70q-32 41 -108 41q-88 0 -163 -70.5t-117 -176 t-65.5 -212t-23.5 -192.5z" />
<glyph unicode="e" horiz-adv-x="909" d="M59 303q0 285 164 500t426 215q272 0 273 -207q0 -66 -22.5 -116t-52.5 -79.5t-81 -51t-89 -32t-97 -20.5l-160 -31q-16 -4 -45 -9t-37 -7l-25 -6q-16 -4 -19 -10.5t-10.5 -13.5t-8.5 -20.5t-2 -27.5t-1 -39q0 -260 209 -260q133 0 353 117l-17 -74q-195 -113 -323 -141 q-72 -16 -138 -17q-297 0 -297 330zM303 578q0 -35 21 -35q25 0 69 8l121 24q195 37 195 207q0 156 -131 156q-66 0 -122.5 -51t-87 -119t-48 -121t-17.5 -69z" />
<glyph unicode="f" horiz-adv-x="681" d="M37 -451q84 336 139 678q10 57 37 201.5t44 252t17 155.5q0 33 -7 42t-38 17q-6 0 -10 2l-113 31l7 41l110 16q59 8 72.5 27.5t30 96.5t59.5 163q59 117 157.5 167t202.5 50q63 0 100.5 -24.5t37.5 -61.5q0 -27 -17 -60l-57 -118h-33q-35 166 -139 166q-43 0 -70.5 -24 t-41 -72t-17.5 -99t-4 -131q0 -25 3 -40t19.5 -23.5t22.5 -9.5t37 -7l168 -33l-9 -41l-180 -24q-27 -4 -41 -7t-23 -19.5t-10.5 -23t-9.5 -40.5l-129 -572q-43 -193 -62.5 -271.5t-53 -172.5t-68.5 -133l-96 -105z" />
<glyph unicode="g" horiz-adv-x="985" d="M-47 -139q0 68 38 120t84 75.5t84 45t38 35.5q0 18 -39 41t-39 45q0 57 25.5 95t57 52.5t57.5 32t26 35.5q0 12 -8.5 20.5t-29 21t-30.5 20.5q-70 53 -70 170q0 164 122 256t292 92q82 0 152 -12q63 -14 75 -15q23 0 52 13l188 67l21 -35l-127 -125q-31 -31 -31 -43 t4 -36.5t4 -40.5q0 -106 -39 -181t-107.5 -114t-142 -55.5t-161.5 -16.5q-4 0 -15.5 1t-17.5 1q-47 0 -72 -20.5t-25 -49.5q0 -49 66 -77.5t181.5 -55t170.5 -51.5q94 -41 128 -94t34 -139q0 -158 -151.5 -275t-397.5 -117q-188 0 -292.5 80t-104.5 234zM123 -111 q0 -121 93 -188.5t237 -67.5q113 0 185.5 63.5t72.5 168.5q0 63 -44 112.5t-111 74t-127 36.5t-110 12q-78 0 -137 -61.5t-59 -149.5zM336 680q0 -184 166 -184q98 0 153.5 78.5t55.5 179.5q0 193 -170 192q-96 0 -150.5 -76.5t-54.5 -189.5z" />
<glyph unicode="h" horiz-adv-x="1175" d="M78 80q0 12 8 47q262 1079 262 1159q0 43 -61 57l-94 25l6 33q23 4 107.5 25.5t148 35t88.5 13.5q8 0 25.5 -14.5t15.5 -24.5l-113 -465q-8 -35 14 -35q12 0 61.5 20.5t130.5 41t167 20.5q170 0 170 -148q0 -12 -25 -116l-92 -400q-27 -117 -27 -168q0 -41 33 -64.5 t72 -23.5q59 0 190 66l-12 -60q-172 -131 -295 -131q-74 0 -134 51.5t-60 104.5q0 27 28 152l119 507q4 18 -1 46t-36 57t-88 29q-29 0 -64.5 -10.5t-80.5 -36t-85 -82t-59 -138.5l-102 -430q-14 -61 -14 -82q0 -37 6 -56t13 -25.5t30 -16.5l-4 -27q-113 -35 -176 -34 q-25 0 -48.5 31.5t-23.5 66.5z" />
<glyph unicode="i" horiz-adv-x="606" d="M82 891l10 45q274 82 322 82q12 0 40.5 -23.5t28.5 -52.5q0 -20 -41 -172l-104 -389q-35 -133 -35 -164q0 -49 19.5 -77.5t37 -35t35.5 -6.5q72 0 199 64l-14 -58q-188 -131 -308 -131q-59 0 -115.5 52.5t-56.5 109.5q0 51 39 197l90 338q31 115 31 133q0 57 -43 71 q-18 7 -135 17zM350 1296q0 55 36 89t93 34q117 0 117 -102q0 -61 -38 -95t-91 -34t-85 27.5t-32 80.5z" />
<glyph unicode="j" horiz-adv-x="530" d="M-188 -324l20 21q4 -2 22.5 -9t33 -11.5t43 -9.5t59.5 -5q61 0 81.5 52.5t53.5 248.5q12 80 20 129l93 541q25 152 24 182q0 43 -24.5 54.5t-110.5 17.5q-29 2 -45 4l10 45q274 82 322 82q14 0 42.5 -23.5t28.5 -52.5q0 -27 -30 -174l-152 -774q-25 -125 -77 -218 t-111.5 -139.5t-109.5 -68t-87 -21.5q-41 0 -68 60zM305 1296q0 55 36 89t93 34q117 0 117 -102q0 -61 -38 -95t-91 -34t-85 27.5t-32 80.5z" />
<glyph unicode="k" d="M106 88l246 1092q16 72 17 98q0 51 -58 63l-100 27l6 33q287 74 352 74q16 0 27.5 -12.5t11.5 -27t-14 -67.5l-186 -754q0 -10 1 -15t4 -11t11 -9.5t20 -3.5q20 0 41 12.5t29 20.5t29 33l307 340q35 37 96 37h174l13 -27q-90 -55 -285 -211l-182 -149q-47 -43 -48 -58 q0 -31 23 -65l160 -262q20 -33 34.5 -52.5t46 -37t72.5 -17.5q66 0 160 60l-12 -64q-23 -16 -68 -53t-70.5 -55.5t-63.5 -36t-73 -17.5q-55 0 -99 48.5t-107 166.5l-138 258q-27 49 -49 50q-33 0 -45 -11.5t-20 -48.5l-52 -243q-10 -51 -10 -80q0 -43 55 -68l-4 -27 q-106 -37 -178 -36q-31 0 -57 28q-19 21 -19 52q-1 12 2 26z" />
<glyph unicode="l" horiz-adv-x="606" d="M102 162q0 29 13 84l207 909q18 80 18 121q0 31 -12.5 44t-51.5 23l-83 23l6 33q43 8 177 42t161 34q10 0 26.5 -14.5t16.5 -26.5q0 -23 -17 -88l-217 -895q-41 -172 -41 -230q0 -123 92 -123q70 0 201 84l-14 -63q-188 -145 -299 -146q-68 0 -125.5 47.5t-57.5 141.5z " />
<glyph unicode="m" horiz-adv-x="1742" d="M90 885l10 53q184 80 265 80q41 0 76.5 -40t54.5 -40q10 0 148 40t216 40q45 0 78 -21.5t54.5 -44t35.5 -22.5q18 0 149.5 44t249.5 44q88 0 121 -45t33 -131q0 -20 -16 -78l-113 -465q-16 -66 -16 -111q0 -35 25.5 -62.5t72.5 -27.5q66 0 199 76l-15 -65q-4 -2 -42 -28 t-72.5 -47.5t-87 -41t-95.5 -19.5q-74 0 -131 55.5t-57 139.5q0 20 18 104l113 445q14 49 14 76q0 127 -125 127q-82 0 -161.5 -70t-116.5 -215l-80 -354q-27 -127 -27 -146q0 -14 2 -26.5t4.5 -18.5t9.5 -15t9 -11.5t12 -11.5t13 -9l-5 -27q-6 -2 -42.5 -11t-74.5 -16 t-55 -7q-33 0 -54 28.5t-21 61.5q0 18 20 100l115 504q27 113 26 127q0 23 -2 36t-13 35.5t-40 34t-74 11.5q-92 0 -165.5 -74t-110.5 -211l-98 -395q-23 -86 -23 -107q0 -23 2 -38t8 -24.5t10.5 -12.5t14.5 -8l14 -7l-6 -27q-119 -35 -180 -34q-23 0 -43.5 29.5t-22.5 76.5 q0 27 17 80l135 537q18 70 18 106q0 49 -23.5 66.5t-74.5 17.5q-14 0 -80 -10z" />
<glyph unicode="n" horiz-adv-x="1212" d="M90 885l10 53q184 80 265 80q41 0 76.5 -40t54.5 -40q37 0 159.5 40t231.5 40q98 0 133 -43t35 -121q0 -31 -17 -90l-116 -465q-14 -57 -15 -111q0 -35 25.5 -62.5t71.5 -27.5q70 0 202 76l-14 -65q-4 -2 -42 -28t-73 -47.5t-87 -41t-95 -19.5q-74 0 -132 55.5t-58 139.5 q0 23 20 104l113 445q14 53 14 76q0 127 -125 127q-84 0 -166 -54q-43 -29 -56 -40t-38 -58t-45 -133l-98 -395q-23 -90 -23 -107q0 -23 2 -38t8 -24.5t10.5 -12.5t14.5 -8l14 -7l-6 -27q-119 -35 -180 -34q-23 0 -43.5 29.5t-22.5 76.5q0 25 17 80l135 537q23 84 22 106 q0 49 -23.5 66.5t-78.5 17.5q-14 0 -80 -10z" />
<glyph unicode="o" horiz-adv-x="1024" d="M41 342q0 293 164 484.5t446 191.5q334 0 334 -346q0 -307 -167 -503t-453 -196q-162 0 -243 88t-81 281zM254 352q0 -90 11 -148.5t55.5 -104.5t123.5 -46q86 0 154 64.5t103.5 164t53 199t17.5 187.5q0 127 -37 198.5t-143 71.5q-109 0 -189.5 -104.5t-114.5 -233.5 t-34 -248z" />
<glyph unicode="p" d="M-113 -410l9 45l79 29q41 14 54.5 39t33.5 119l173 805q33 152 32 186q0 43 -20.5 65.5t-75.5 22.5q-29 0 -82 -8l10 53q6 2 43 16.5t56.5 20.5t53.5 16.5t64.5 14.5t59.5 4q37 0 70.5 -36t44.5 -36q12 0 126.5 36t233.5 36q125 0 169 -76t44 -213q0 -338 -150.5 -547 t-451.5 -209q-8 0 -88 7q-37 6 -65.5 6t-41.5 -66l-35 -188q-4 -23 9.5 -34t52.5 -26l115 -37l-9 -45h-514zM344 244q0 -98 36 -144.5t134 -46.5q78 0 140.5 53.5t98 131t59.5 175t32 175.5t8 143q0 86 -38 137.5t-112 51.5q-72 0 -126 -29t-84.5 -80t-47 -95t-28.5 -102 q-72 -331 -72 -370z" />
<glyph unicode="q" horiz-adv-x="1060" d="M41 272q0 96 18.5 192.5t65.5 198t119.5 179.5t192.5 127t270 49q31 0 79 -4q37 -6 60 -6q47 0 82 24l67 49l45 -8q-41 -129 -92 -389l-166 -827q-20 -102 -20 -140q0 -23 49 -43l92 -39l-8 -45h-528l8 45l117 39q41 14 57 37t26 66l48 207q0 2 3 17t3 24q0 27 -23 26 q-4 0 -117.5 -39t-218.5 -39q-123 0 -176 74.5t-53 224.5zM254 289q0 -217 152 -217q63 0 111 19.5t77 46t51.5 78.5t32.5 90t24 108l64 291q16 74 16 141q0 39 -45 63.5t-102 24.5q-94 0 -172 -71.5t-121 -177t-65.5 -210t-22.5 -186.5z" />
<glyph unicode="r" horiz-adv-x="796" d="M96 893l10 45q176 80 254 80q37 0 74 -49t53 -49q23 0 113 49t178 49q47 0 70.5 -27.5t23.5 -70.5q0 -6 -22 -52l-72 -123h-33q-31 141 -131 142q-74 0 -117.5 -73t-76.5 -214l-88 -395q-14 -51 -15 -90q0 -10 2.5 -19.5t5.5 -15.5t10 -12.5t9 -8.5t12.5 -8t12.5 -8 l-4 -27q-18 -8 -80 -20t-101 -12q-25 0 -47 29.5t-22 70.5q0 8 22 104l113 476q29 115 29 157q0 78 -84 78q-54 0 -99 -6z" />
<glyph unicode="s" horiz-adv-x="833" d="M41 160q0 8 14 37l68 125h35q6 -45 19 -85t38 -85.5t69 -72t103 -26.5q66 0 110 44t44 110q0 59 -38 111.5t-93.5 94.5t-110.5 83t-93 96t-38 119q0 143 120 225t281 82q92 0 155.5 -32t63.5 -83q0 -53 -8 -67l-63 -117h-33q-49 219 -192 219q-66 0 -108 -37t-42 -96 q0 -57 35 -100t116.5 -102.5t106.5 -82.5q66 -59 90.5 -103t24.5 -126q0 -135 -120 -226.5t-292 -91.5q-262 1 -262 187z" />
<glyph unicode="t" horiz-adv-x="681" d="M123 928l6 41l125 18q51 8 65.5 19.5t38.5 58.5l101 192h51v-186q0 -74 31 -78l198 -30l-8 -41l-188 -31q-49 -8 -63.5 -24.5t-26.5 -65.5l-91 -391q-33 -143 -32.5 -198.5t28 -84.5t70.5 -29q66 0 193 58l-13 -60q-188 -123 -321 -123q-59 0 -109.5 44t-50.5 89 q0 82 18 173l127 532q8 33 9 49q0 29 -50 41z" />
<glyph unicode="u" horiz-adv-x="1212" d="M106 899l11 45q225 74 293 74q31 0 56.5 -27.5t25.5 -50.5q0 -18 -9 -51l-121 -512q-33 -141 -32 -184q0 -20 2 -35t13 -38.5t40 -35.5t74 -12q115 0 181.5 70.5t107.5 254.5l94 430q8 37 -20.5 55.5t-104.5 18.5q-8 0 -21.5 -1t-19.5 -1l8 47q31 8 81 23.5t71.5 21.5 t52.5 13.5t50 10.5t38 3q41 0 63.5 -30t22.5 -54q0 -14 -16 -80l-119 -481q-29 -119 -29 -170q0 -39 25.5 -72t81.5 -33q47 0 182 68l-10 -57q-170 -135 -291 -136q-43 0 -98.5 48.5t-71.5 48.5q-14 0 -169 -48.5t-241 -48.5q-180 0 -180 172q0 39 18 95l97 424q2 6 12 45 t17.5 71.5t7.5 42.5q0 23 -4.5 37t-26 27.5t-62.5 13.5q-53 0 -80 -2z" />
<glyph unicode="v" horiz-adv-x="1024" d="M74 926q6 2 29.5 16t38 21.5t40 18.5t45 18.5t44 12.5t46.5 5q49 0 86 -33t37 -92q0 -43 -6 -68l-55 -479q-10 -127 -10 -147q0 -49 21.5 -75t53.5 -26q88 0 178.5 123t145.5 288t55 292q0 49 -26.5 78.5t-67.5 29.5q-25 0 -47 -6l-8 37q135 78 221 78q45 0 79 -40 t34 -104q0 -92 -57.5 -242.5t-147.5 -298t-218 -254t-251 -106.5q-55 0 -106.5 44t-51.5 126q0 70 10 115l50 395q8 72 8 170q0 29 -25.5 49.5t-58.5 20.5q-27 0 -80 -8z" />
<glyph unicode="w" horiz-adv-x="1554" d="M72 934q162 84 243 84q49 0 87 -30t38 -83q0 -37 -13 -153.5t-31.5 -259t-18.5 -144.5q-10 -88 -10 -143q0 -51 25.5 -79t60.5 -28q207 0 280 377l49 254q10 43 11 107q0 29 -22.5 48t-51.5 19q-43 0 -90 -10l-6 41q158 84 260 84q45 0 78.5 -33t33.5 -92q0 -18 -8 -59 l-92 -480q-16 -86 -16 -151q0 -45 28.5 -75t67.5 -30q100 0 190 122t138.5 278.5t48.5 281.5q0 57 -26 93t-62 36q-31 0 -56 -8l-6 41q145 76 213 76q59 0 90 -48t31 -122q0 -133 -95 -338t-252 -371t-302 -166q-57 0 -98 37t-65 74t-40 37q-18 0 -72.5 -37t-129 -74 t-142.5 -37q-61 0 -113.5 45t-52.5 117q0 29 8 103l62 538q2 23 -1 49.5t-21.5 52t-51.5 25.5q-41 0 -92 -10z" />
<glyph unicode="x" horiz-adv-x="1060" d="M8 68q0 31 27 88l31 65h40q0 -82 58 -82q27 0 73 39t87 94l71 101q51 78 51 104q0 39 -12 76l-61 197q-10 37 -17.5 55t-26 37.5t-44.5 19.5q-53 0 -127 -74l-29 35q2 2 15.5 18.5t19.5 23.5t21.5 24.5t24.5 26.5l26 26q16 16 28 24.5t29.5 19.5t32 17.5t32 10.5t33.5 4 q82 0 111 -92l49 -164q25 -86 43 -86q16 0 65 78l64 96q66 98 112 133t97 35q35 0 57.5 -26.5t22.5 -61.5q0 -45 -11 -76l-22 -68h-35q-6 76 -67.5 76t-143.5 -123l-49 -75q-57 -94 -57 -119q0 -29 16 -86l51 -185q43 -158 123 -157q33 0 69 22.5t47 33.5t42 46l33 -35 q-147 -211 -291 -211q-113 0 -166 181l-33 110q-25 82 -39 82q-8 0 -18 -10t-17.5 -20.5t-17.5 -26.5l-10 -17l-76 -114q-74 -111 -125 -148t-115 -37q-31 0 -46 3.5t-30.5 26t-15.5 65.5z" />
<glyph unicode="y" horiz-adv-x="1024" d="M10 -332l6 31q72 4 150 26.5t146.5 80t68.5 137.5q0 111 -20.5 309.5t-78 404t-135.5 205.5q-35 0 -94 -33v56q2 2 33 29.5t44 39t42 29.5t56.5 26.5t56.5 8.5q84 0 134 -135t63.5 -298t27.5 -298t32.5 -135t87 124.5t131 290.5t62.5 256q0 80 -96 80q-14 0 -25 -10l3 45 q6 4 32.5 20.5t38.5 23.5t35 17.5t44.5 14.5t45.5 4q45 0 72.5 -34t27.5 -93q0 -80 -158.5 -395.5t-365.5 -610.5t-313 -295q-25 0 -70 25z" />
<glyph unicode="z" horiz-adv-x="985" d="M-41 20q158 139 317 318l390 442q33 35 32 58q0 16 -41 16h-202q-76 0 -132.5 -20.5t-82 -42t-76.5 -72.5l-29 26q6 8 26.5 47t29 51.5t30 43.5t38.5 43t43 30.5t56.5 24.5t65.5 6h553l12 -30q-125 -94 -348 -351l-270 -303q-47 -51 -47 -78q0 -51 102 -74.5t217 -23.5 q139 0 260 193l43 -23q-4 -8 -27.5 -54t-35 -64.5t-37 -58.5t-46 -60.5t-50 -45t-63.5 -35t-71 -10.5q-57 0 -231 32t-219 32q-18 0 -33.5 -2t-31 -6t-25.5 -7.5t-23.5 -10.5t-18.5 -10t-19.5 -12t-16.5 -12z" />
<glyph unicode="{" d="M322 580v49q96 31 160.5 97.5t64.5 162.5q0 29 -33 192q-25 123 -25 197q0 141 134.5 241.5t298.5 106.5v-51q-106 -25 -163 -103.5t-57 -175.5q0 -59 14.5 -173.5t14.5 -161.5q0 -80 -31.5 -143.5t-93 -106.5t-96.5 -61.5t-96 -45.5q47 -20 73.5 -33.5t80 -47.5 t84 -68.5t55 -90t24.5 -116.5q0 -47 -14.5 -162t-14.5 -174q0 -96 56.5 -175t163.5 -104v-51q-164 6 -298.5 106.5t-134.5 241.5q0 74 25 197q33 164 33 192q0 90 -65.5 160t-159.5 101z" />
<glyph unicode="|" horiz-adv-x="681" d="M291 -512v2048h100v-2048h-100z" />
<glyph unicode="}" d="M291 -367q106 25 162.5 104t56.5 175q0 59 -14.5 174t-14.5 162q0 61 24.5 116.5t55.5 90t84 68.5t80 47.5t74 33.5q-61 27 -96 45.5t-96.5 61.5t-93.5 106.5t-32 143.5q0 47 14.5 161.5t14.5 173.5q0 96 -56.5 175t-162.5 104v51q164 -6 298 -106.5t134 -241.5 q0 -74 -25 -197q-33 -164 -32 -192q0 -96 64.5 -163t160.5 -97v-49q-94 -31 -159.5 -100.5t-65.5 -160.5q0 -29 32 -192q25 -123 25 -197q0 -141 -134 -241.5t-298 -106.5v51z" />
<glyph unicode="~" horiz-adv-x="2009" d="M514 260q0 494 289 494q82 0 142.5 -43t94 -103.5t63.5 -121t68.5 -103.5t90.5 -43q41 0 70.5 27.5t44 61.5t21.5 94.5t8 94t1 91.5h127q0 -57 -2 -93t-8 -104t-25.5 -113t-49.5 -92t-82 -71.5t-120 -24.5q-82 0 -140 43t-90 104.5t-59.5 123t-66.5 104.5t-90 43 q-39 0 -67.5 -16.5t-46 -50.5t-28 -65.5t-14.5 -81.5t-5 -79t-1 -76h-125z" />
<glyph unicode="&#xa1;" horiz-adv-x="720" d="M90 -336l227 918l25 22h70l18 -22l-104 -922l-45 -41h-156zM309 891q0 55 37 91t105 36q49 0 81.5 -33t32.5 -80q0 -55 -35.5 -91t-95.5 -36q-125 0 -125 113z" />
<glyph unicode="&#xa2;" d="M197 567q0 172 49 301t113.5 193.5t143.5 103.5t121 47.5t64 8.5q10 0 14.5 8t8.5 37l18 106h84l-20 -117q-6 -14 -2 -22t7 -11t16 -5.5t26.5 -3.5t37 -5t48.5 -10q74 -23 102.5 -52.5t28.5 -94.5q0 -10 -13 -29l-69 -111h-33q-4 72 -44 148t-101 76q-18 0 -24.5 -7.5 t-10.5 -33.5l-141 -766q0 -33 24 -33q160 0 307 168l35 -33q-100 -111 -180 -158t-132 -59t-75 -33q-10 -8 -16 -45l-25 -133h-84l29 172q0 14 -32 23.5t-77 27t-90 50t-76.5 107t-31.5 185.5zM387 621q0 -305 125 -306q23 0 31 47l137 752q2 8 -6 17.5t-17 9.5 q-98 0 -184 -170t-86 -350z" />
<glyph unicode="&#xa3;" d="M-59 92q0 72 79.5 158t165.5 86q18 0 57.5 -12.5t57.5 -12.5q35 0 62.5 98.5t27.5 155.5q0 12 -7 19.5t-14.5 9.5t-27.5 6l-129 25l10 45l146 26q18 2 29.5 7.5t18.5 17.5t9 17t6 25.5t6 27.5l72 276q39 147 166 226t231 79q47 0 77 -25.5t30 -62.5q0 -20 -6 -33 l-52 -125h-20q-43 82 -78 103q-27 18 -63 18q-119 0 -142 -203l-35 -313q0 -31 44 -35l217 -24l-9 -49l-221 -29q-70 -12 -82 -43l-32 -82l-97 -188q-16 -31 160 -89.5t211 -58.5q20 0 39.5 5t34 10.5t32 18.5t25.5 19.5t25.5 26.5t21.5 25.5t20.5 28t18.5 24.5l35 -21 q-35 -70 -51.5 -98.5t-56.5 -86.5t-85 -85t-96 -27q-80 0 -253 82t-181 82q-18 0 -60 -41t-100.5 -82t-112 -41t-89 34t-35.5 85zM45 154q0 -31 18.5 -51.5t47.5 -20.5q41 0 86 30.5t45 57.5q0 25 -34 41t-77 16q-41 0 -63.5 -22t-22.5 -51z" />
<glyph unicode="&#xa4;" d="M63 1145l66 63l141 -139q131 94 281 94q147 0 278 -94l142 139l65 -63l-143 -144q98 -100 98 -282q0 -170 -96 -279l137 -137l-61 -61l-135 135q-129 -96 -285 -96q-164 0 -287 96l-135 -135l-61 61l137 137q-96 104 -96 279q0 162 98 282zM193 718.5 q0 -147.5 105 -250.5t253 -103q145 0 250.5 104t105.5 250q0 147 -104.5 253.5t-252 106.5t-252.5 -106.5t-105 -254z" />
<glyph unicode="&#xa5;" d="M96 430l10 92h326l21 148h-306l11 92h266l-131 389q-37 104 -84 133l-72 43l10 45h488l-10 -45l-93 -43q-6 -2 -17 -6t-16 -5t-12.5 -7t-6.5 -13l3 -18l109 -383q18 -59 35 -59q14 0 41 49l227 387q4 6 5 11t-1 10t-4 8.5t-8 7.5t-10.5 6l-13.5 6t-11 6l-96 43l10 45h418 l-10 -45l-54 -29q-10 -6 -21.5 -13t-22.5 -18.5t-19 -20.5t-22.5 -26.5t-21.5 -26.5t-24.5 -32.5t-25.5 -34.5l-246 -364h301l-10 -92h-346l-21 -148h326l-11 -92h-327l-39 -283q-2 -12 1 -22t14 -17.5t17.5 -10.5t25 -10t20.5 -7l92 -35l-10 -45h-566l11 45l116 37 q4 2 11.5 3t11.5 2t10 3t8 4t7.5 5t7.5 7.5t5 9.5t5 11t4 14l39 289h-324z" />
<glyph unicode="&#xa6;" horiz-adv-x="530" d="M203 -358v716h123v-716h-123zM203 666v716h123v-716h-123z" />
<glyph unicode="&#xa7;" d="M152 578q0 72 31.5 125t70.5 76.5t70.5 44t31.5 32.5q0 10 -20.5 26.5t-44 36t-44 65.5t-20.5 110q0 139 116 222t255 83q109 0 195 -38t86 -91q0 -23 -17 -56l-51 -108h-31q-86 203 -243 203q-63 0 -97 -42t-34 -120q0 -55 48 -104.5t97 -74t141 -63.5q96 -41 156.5 -81 t86.5 -82t33 -73.5t7 -80.5q0 -70 -28.5 -124t-61.5 -79t-61.5 -45.5t-28.5 -30.5q0 -16 18 -30.5t42 -28.5t42 -62.5t18 -126.5q0 -131 -119.5 -214t-289.5 -83q-106 0 -203.5 43t-97.5 105q0 12 18 49l56 127h28q94 -233 275 -233q74 0 114.5 41t40.5 112 q0 80 -60.5 133.5t-146.5 86t-172 68.5t-146 107t-60 175zM311 647q0 -78 49.5 -126t184.5 -105q14 -6 42.5 -19.5t45 -20.5t36 -13.5t33.5 -6.5q43 0 78 47.5t35 112.5q0 43 -16.5 78t-48 61.5t-58 42t-67.5 35.5q-145 70 -189 70q-39 0 -82 -46.5t-43 -109.5z" />
<glyph unicode="&#xa8;" horiz-adv-x="606" d="M139 1247q0 47 32 80t85 33q41 0 68.5 -24.5t27.5 -69.5q0 -51 -33.5 -85t-78.5 -34q-101 0 -101 100zM553 1247q0 47 31.5 80t85.5 33q41 0 68.5 -24.5t27.5 -69.5q0 -51 -34 -85t-79 -34q-100 0 -100 100z" />
<glyph unicode="&#xa9;" horiz-adv-x="1024" d="M147 937.5q0 192.5 142.5 327t337 134.5t337 -134.5t142.5 -327t-142.5 -326.5t-337 -134t-337 134t-142.5 326.5zM219 938q0 -162 120 -275.5t288 -113.5t287.5 113.5t119.5 275.5q0 164 -119.5 276.5t-287.5 112.5t-288 -112.5t-120 -276.5zM377 934q0 123 79 209 t173 86q47 0 90 -16.5t55 -16.5q8 0 13.5 4t13.5 17l8 10h31v-209l-31 -6q-2 2 -9 22.5t-10.5 26.5t-11.5 24.5t-14 26.5t-15.5 22.5t-18.5 21.5t-21.5 15.5t-25.5 11.5t-28 3q-145 0 -145 -250q0 -106 39 -167.5t113 -61.5q115 0 143 149l43 2q-4 -31 -7 -47t-16.5 -49 t-33 -52.5t-58.5 -35t-92 -15.5q-115 0 -189.5 78t-74.5 197z" />
<glyph unicode="&#xaa;" d="M295 858q0 180 116.5 347t299.5 167q59 0 99 -7t42 -7q18 0 39 10l53 18l21 -18l-105 -436q-16 -70 -16 -101q0 -29 21.5 -46t45.5 -17q39 0 133 45l-10 -47q-129 -92 -203 -92q-35 0 -73.5 29.5t-50.5 29.5q-4 0 -93.5 -29.5t-156.5 -29.5q-162 0 -162 184zM455 887 q0 -127 96 -127q25 0 45 6t34.5 12t28 24.5t20.5 28t17.5 38t13.5 37.5t12 44t11 43q45 166 45 252q0 25 -23.5 42.5t-54.5 17.5q-76 0 -135 -80t-84.5 -173t-25.5 -165z" />
<glyph unicode="&#xab;" horiz-adv-x="985" d="M102 528l11 52l368 389l47 -31l-223 -328q-31 -45 -31 -61q0 -25 21 -72l139 -325l-47 -27zM481 528l11 52l368 389l47 -31l-223 -328q-31 -45 -31 -61q0 -25 21 -72l139 -325l-47 -27z" />
<glyph unicode="&#xac;" horiz-adv-x="2009" d="M510 762v129h1067v-598h-129v469h-938z" />
<glyph unicode="&#xad;" horiz-adv-x="606" d="M47 481l25 133h495l-24 -133h-496z" />
<glyph unicode="&#xae;" horiz-adv-x="1024" d="M147 937.5q0 192.5 142.5 327t337 134.5t337 -134.5t142.5 -327t-142.5 -326.5t-337 -134t-337 134t-142.5 326.5zM219 938q0 -162 120 -275.5t288 -113.5t287.5 113.5t119.5 275.5t-119.5 275.5t-287.5 113.5t-288 -113.5t-120 -275.5zM389 684v39q47 4 61.5 17.5 t14.5 64.5v293q0 47 -12.5 57t-63.5 16v41h250q109 0 166 -27.5t57 -105.5q0 -47 -28.5 -76.5t-52 -38t-68.5 -18.5q55 -33 78.5 -81t31.5 -77.5t29 -29.5q33 0 33 67h41q0 -49 -24.5 -95t-84 -46t-87.5 39t-31 86t-25.5 86t-73.5 39h-22v-123q0 -57 11 -68.5t66 -19.5v-39 h-266zM578 977h43q117 0 116 92q0 102 -88 102q-33 0 -49 -10t-19 -23.5t-3 -43.5v-117z" />
<glyph unicode="&#xaf;" horiz-adv-x="606" d="M29 1147l20 108h664l-21 -108h-663z" />
<glyph unicode="&#xb0;" d="M365 1073q0 123 87 211t209.5 88t211 -88t88.5 -211t-88.5 -211t-211 -88t-209.5 88t-87 211zM467 1073q0 -82 56.5 -139t138 -57t139 57t57.5 139t-57.5 139.5t-139 57.5t-138 -57.5t-56.5 -139.5z" />
<glyph unicode="&#xb1;" horiz-adv-x="2009" d="M510 23v129h1069v-129h-1069zM510 633v129h469v469h129v-469h469v-129h-469v-395h-129v395h-469z" />
<glyph unicode="&#xb2;" horiz-adv-x="720" d="M76 555q29 80 66.5 129t75.5 70.5t105.5 65.5t127.5 102q111 104 110 225q0 70 -33.5 104.5t-89.5 34.5q-86 0 -172 -67l-28 28l24 25q23 23 28 27t26.5 21t36 22.5t38 14.5t50 12t57.5 3q215 0 215 -190q0 -66 -21.5 -120t-63.5 -97t-78 -71t-93.5 -65.5t-81.5 -56.5 q-92 -66 -92 -92q0 -18 10 -23.5t41 -5.5h162q72 0 101.5 20.5t59.5 80.5h45q-2 -12 -11 -53.5t-13 -53.5t-15.5 -41t-23.5 -38t-34.5 -19t-51.5 -10h-459z" />
<glyph unicode="&#xb3;" horiz-adv-x="720" d="M113 627q0 10 10 24l43 76h29q37 -137 178 -137q74 0 115.5 50t41.5 126q0 47 -18 81t-42 50t-63.5 24.5t-63.5 9.5t-64 1q-4 0 -12.5 -2t-12.5 -2l-14 18l39 53q16 18 43 19h40q80 0 137.5 39t57.5 117q0 53 -31.5 82.5t-85.5 29.5q-39 0 -72.5 -10t-49 -20.5 t-46.5 -32.5l-24 28q6 4 27.5 26.5t29.5 30t31.5 24t44 22.5t52.5 12t71 6q88 0 141 -40t53 -124q0 -74 -48 -122t-95 -67.5t-47 -23.5t45 -14t91 -51t46 -117q0 -137 -110.5 -213t-262.5 -76q-204 1 -204 103z" />
<glyph unicode="&#xb4;" horiz-adv-x="606" d="M354 1147l332 352h31l59 -127l-385 -266z" />
<glyph unicode="&#xb5;" horiz-adv-x="1212" d="M23 -342q0 10 6 39l250 1126q8 37 -11.5 57.5t-81.5 20.5q-53 0 -80 -2l11 47q229 72 293 72q31 0 56.5 -27.5t25.5 -50.5q0 -41 -17 -115l-119 -559q-14 -70 -14 -90q0 -25 2 -38t12.5 -31.5t36 -26.5t66.5 -8q115 0 181.5 70.5t107.5 254.5l94 430q8 37 -20.5 55.5 t-104.5 18.5q-8 0 -21.5 -1t-19.5 -1l8 47q31 8 81 23.5t71.5 21.5t52.5 13.5t50 10.5t38 3q41 0 63.5 -30t22.5 -54q0 -14 -16 -80l-119 -481q-29 -119 -29 -170q0 -39 25.5 -72t81.5 -33q47 0 182 68l-10 -57q-170 -135 -291 -136q-43 0 -98.5 48.5t-71.5 48.5 q-12 0 -113.5 -48.5t-197.5 -48.5q-61 0 -107 25l-49 -231q-14 -68 -14 -103q0 -16 2 -25.5t11 -15.5t14 -7t24 -7l-4 -27q-113 -35 -177 -35q-25 0 -54 38t-29 73z" />
<glyph unicode="&#xb6;" d="M197 881q0 127 54 225t145 154.5t195.5 84t217.5 27.5h235v-76h-118v-1775h-76v1775h-125v-1775h-76v895q-74 8 -145.5 35.5t-144 79t-117.5 142.5t-45 208z" />
<glyph unicode="&#xb7;" d="M459 690q0 53 35.5 90t95.5 37q125 0 125 -112q0 -55 -38 -91t-104 -36q-49 0 -81.5 32.5t-32.5 79.5z" />
<glyph unicode="&#xb8;" horiz-adv-x="606" d="M63 -373q160 25 160 99q0 31 -15 50t-32.5 26.5t-48.5 11.5l-12 28l110 158h78l-31 -47q-16 -20 -16 -39q0 -14 28.5 -24.5t57.5 -36t29 -74.5q0 -172 -308 -209v57z" />
<glyph unicode="&#xb9;" horiz-adv-x="720" d="M188 537l7 32l79 25q27 8 36 12t18.5 17.5t13.5 42.5l100 565q2 8 -11 14t-34 8l-108 4l6 37l295 78l22 -22l-131 -723q-4 -20 31 -27q4 -2 6 -2l94 -29l-6 -32h-418z" />
<glyph unicode="&#xba;" d="M319 922q0 199 115 324.5t307 125.5q236 0 236 -233q0 -211 -116 -338t-314 -127q-228 0 -228 248zM479 934q0 -90 25.5 -139.5t99.5 -49.5t125 70t69.5 152t18.5 161q0 82 -25.5 127t-95 45t-122 -63t-74 -144t-21.5 -159z" />
<glyph unicode="&#xbb;" horiz-adv-x="985" d="M102 156l224 327q31 45 30 62q0 25 -20 71l-139 326l47 27l284 -404l-10 -51l-368 -389zM481 156l224 327q31 45 30 62q0 25 -20 71l-140 326l48 27l284 -404l-10 -51l-369 -389z" />
<glyph unicode="&#xbc;" horiz-adv-x="2009" d="M322 537l6 32l80 25q27 8 36 12t18 17.5t13 42.5l100 565q2 8 -11 14t-34 8l-108 4l6 37l295 78l22 -22l-131 -723q-4 -20 31 -27q4 -2 6 -2l94 -29l-6 -32h-417zM479 -37l490 739l479 736l86 -54l-490 -737l-477 -737zM1104 233l20 76q2 10 30 43t73 84t59 70 q66 76 166 181.5t125 111.5l131 26l16 -18l-90 -485q-4 -20 19 -21h114l15 -22l-53 -64h-78q-25 0 -31 -4t-12 -35l-25 -131q-4 -20 -7 -27.5t-12.5 -14.5t-27.5 -9l-92 -14l-14 16q37 203 36 205q0 14 -39 14h-309zM1243 322q0 -14 8.5 -17.5t36.5 -3.5h158q31 0 37 5 t12 38l64 348q-18 0 -167 -172.5t-149 -197.5z" />
<glyph unicode="&#xbd;" horiz-adv-x="2009" d="M319 537l7 32l80 25q27 8 36 12t18 17.5t13 42.5l100 565q2 8 -11 14t-34 8l-108 4l6 37l295 78l22 -22l-131 -723q-4 -20 31 -27q4 -2 6 -2l94 -29l-6 -32h-418zM487 -37l490 739l479 736l86 -54l-489 -737l-478 -737zM1092 18q29 80 66.5 129.5t75.5 71t105.5 65.5 t126.5 101q111 104 111 209q0 68 -34 101.5t-89 33.5q-86 0 -172 -67l-29 28l28 28q26 26 34 32t33.5 25.5t45 24.5t51.5 12t68 7q215 0 216 -190q0 -74 -39 -139.5t-78 -97.5t-120 -86t-101 -70q-92 -66 -93 -93q0 -18 10.5 -23t41.5 -5h161q72 0 101.5 20.5t60.5 79.5h45 q-2 -12 -11 -53t-13 -53.5t-15.5 -41t-24 -38t-35 -19.5t-50.5 -10h-459z" />
<glyph unicode="&#xbe;" horiz-adv-x="2009" d="M256 627q0 10 10 24l43 76h29q37 -137 178 -137q74 0 116 50t42 126q0 47 -18.5 81t-42 50t-63.5 24.5t-63.5 9.5t-64.5 1q-4 0 -12.5 -2t-12.5 -2l-14 18l39 53q16 18 43 19h41q80 0 137 39t57 117q0 53 -31.5 82.5t-84.5 29.5q-39 0 -73 -10t-49.5 -20.5t-45.5 -32.5 l-25 28q6 4 27.5 26.5t30 30t32 24t44 22.5t52 12t70.5 6q88 0 141.5 -40t53.5 -124q0 -74 -48.5 -122t-95.5 -67.5t-47 -23.5t45 -14t91.5 -51t46.5 -117q0 -137 -111 -213t-262 -76q-205 1 -205 103zM530 -37l490 739l479 736l86 -54l-489 -737l-478 -737zM1128 233l21 76 q2 10 29.5 43t72.5 84t60 70q66 76 166 181.5t125 111.5l131 26l16 -18l-90 -485q-4 -20 18 -21h115l14 -22l-53 -64h-78q-25 0 -31 -4t-12 -35l-24 -131q-4 -20 -7.5 -27.5t-12.5 -14.5t-27 -9l-93 -14l-14 16q37 203 37 205q0 14 -39 14h-309zM1268 322q0 -14 8 -17.5 t37 -3.5h157q31 0 37 5t13 38l63 348q-18 0 -166.5 -172.5t-148.5 -197.5z" />
<glyph unicode="&#xbf;" horiz-adv-x="757" d="M-33 -178q0 74 41 151.5t82 118.5q2 2 50 39t95.5 76t89.5 92t42 92q0 82 -58.5 116t-115.5 34q-4 0 -16.5 -3t-16.5 -3l-2 10l30 45q78 20 144 20q100 0 160.5 -64.5t64.5 -154.5q0 -66 -20 -74q-96 -41 -250 -188q-51 -47 -88 -111.5t-37 -119.5q0 -86 45 -134.5 t123 -48.5q90 0 190 72l27 -41q-6 -6 -36 -31.5t-44 -36t-46 -31t-57.5 -30.5t-63.5 -18.5t-77 -8.5q-256 1 -256 232zM297 891q0 55 38 91t103 36q49 0 82 -33t33 -80q0 -55 -36 -91t-95 -36q-125 0 -125 113z" />
<glyph unicode="&#xc0;" horiz-adv-x="1402" d="M-20 0l8 45l67 29q33 12 58.5 45t87.5 139l530 916q61 104 105 184l24 14h131l21 -14q2 -6 21.5 -137t37.5 -242l131 -793q0 -6 2 -17l3 -16.5t3 -14.5t4.5 -14t7.5 -11.5t10 -10.5t14 -9t20 -9l96 -39l-10 -45h-527l9 45l110 41q51 16 51 57q0 18 -8 76l-41 266 q-2 10 -3 17.5t-3 13.5t-5 10t-4 7.5t-6 5.5t-8.5 3t-10.5 1h-11h-14h-17h-295q-51 0 -66.5 -8.5t-33.5 -42.5l-152 -289q-29 -57 -28 -76q0 -31 45 -43l117 -39l-9 -45h-462zM565 659q0 -18 8.5 -22t34.5 -4h248q23 0 33 1t18 7t8 18q0 4 -1 11.5t-3 16.5t-2 13l-57 383 q-6 47 -23 47q-14 0 -34 -40l-215 -394q-15 -25 -15 -37zM615 1749l86 104h30l250 -354l-43 -39z" />
<glyph unicode="&#xc1;" horiz-adv-x="1402" d="M-20 0l8 45l67 29q33 12 58.5 45t87.5 139l530 916q61 104 105 184l24 14h131l21 -14q2 -6 21.5 -137t37.5 -242l131 -793q0 -6 2 -17l3 -16.5t3 -14.5t4.5 -14t7.5 -11.5t10 -10.5t14 -9t20 -9l96 -39l-10 -45h-527l9 45l110 41q51 16 51 57q0 18 -8 76l-41 266 q-2 10 -3 17.5t-3 13.5t-5 10t-4 7.5t-6 5.5t-8.5 3t-10.5 1h-11h-14h-17h-295q-51 0 -66.5 -8.5t-33.5 -42.5l-152 -289q-29 -57 -28 -76q0 -31 45 -43l117 -39l-9 -45h-462zM565 659q0 -18 8.5 -22t34.5 -4h248q23 0 33 1t18 7t8 18q0 4 -1 11.5t-3 16.5t-2 13l-57 383 q-6 47 -23 47q-14 0 -34 -40l-215 -394q-15 -25 -15 -37zM856 1501l332 352h31l59 -127l-385 -266z" />
<glyph unicode="&#xc2;" horiz-adv-x="1402" d="M-20 0l8 45l67 29q33 12 58.5 45t87.5 139l530 916q61 104 105 184l24 14h131l21 -14q2 -6 21.5 -137t37.5 -242l131 -793q0 -6 2 -17l3 -16.5t3 -14.5t4.5 -14t7.5 -11.5t10 -10.5t14 -9t20 -9l96 -39l-10 -45h-527l9 45l110 41q51 16 51 57q0 18 -8 76l-41 266 q-2 10 -3 17.5t-3 13.5t-5 10t-4 7.5t-6 5.5t-8.5 3t-10.5 1h-11h-14h-17h-295q-51 0 -66.5 -8.5t-33.5 -42.5l-152 -289q-29 -57 -28 -76q0 -31 45 -43l117 -39l-9 -45h-462zM565 659q0 -18 8.5 -22t34.5 -4h248q23 0 33 1t18 7t8 18q0 4 -1 11.5t-3 16.5t-2 13l-57 383 q-6 47 -23 47q-14 0 -34 -40l-215 -394q-15 -25 -15 -37zM641 1491l273 342h90l172 -342l-45 -31l-148 188q-31 39 -49 39t-49 -30l-201 -197z" />
<glyph unicode="&#xc3;" horiz-adv-x="1402" d="M-20 0l8 45l67 29q33 12 58.5 45t87.5 139l530 916q61 104 105 184l24 14h131l21 -14q2 -6 21.5 -137t37.5 -242l131 -793q0 -6 2 -17l3 -16.5t3 -14.5t4.5 -14t7.5 -11.5t10 -10.5t14 -9t20 -9l96 -39l-10 -45h-527l9 45l110 41q51 16 51 57q0 18 -8 76l-41 266 q-2 10 -3 17.5t-3 13.5t-5 10t-4 7.5t-6 5.5t-8.5 3t-10.5 1h-11h-14h-17h-295q-51 0 -66.5 -8.5t-33.5 -42.5l-152 -289q-29 -57 -28 -76q0 -31 45 -43l117 -39l-9 -45h-462zM565 659q0 -18 8.5 -22t34.5 -4h248q23 0 33 1t18 7t8 18q0 4 -1 11.5t-3 16.5t-2 13l-57 383 q-6 47 -23 47q-14 0 -34 -40l-215 -394q-15 -25 -15 -37zM610 1532q117 178 207 178q47 0 145 -29q92 -31 142 -31q16 0 31.5 3.5t30.5 10.5t25.5 12t25 16.5t19.5 16.5t19 17l12 12l35 -26q-2 -2 -15 -22.5t-23.5 -33t-28 -35t-32.5 -35.5t-35.5 -28.5t-42 -22.5t-42.5 -7 q-47 0 -139 30q-102 29 -139 29q-29 0 -52.5 -6t-47 -24.5t-31 -25t-31.5 -30.5z" />
<glyph unicode="&#xc4;" horiz-adv-x="1402" d="M-20 0l8 45l67 29q33 12 58.5 45t87.5 139l530 916q61 104 105 184l24 14h131l21 -14q2 -6 21.5 -137t37.5 -242l131 -793q0 -6 2 -17l3 -16.5t3 -14.5t4.5 -14t7.5 -11.5t10 -10.5t14 -9t20 -9l96 -39l-10 -45h-527l9 45l110 41q51 16 51 57q0 18 -8 76l-41 266 q-2 10 -3 17.5t-3 13.5t-5 10t-4 7.5t-6 5.5t-8.5 3t-10.5 1h-11h-14h-17h-295q-51 0 -66.5 -8.5t-33.5 -42.5l-152 -289q-29 -57 -28 -76q0 -31 45 -43l117 -39l-9 -45h-462zM565 659q0 -18 8.5 -22t34.5 -4h248q23 0 33 1t18 7t8 18q0 4 -1 11.5t-3 16.5t-2 13l-57 383 q-6 47 -23 47q-14 0 -34 -40l-215 -394q-15 -25 -15 -37zM631 1601q0 47 32 80t85 33q41 0 68.5 -24.5t27.5 -69.5q0 -51 -33.5 -85t-78.5 -34q-101 0 -101 100zM1045 1601q0 47 31.5 80t85.5 33q41 0 68.5 -24.5t27.5 -69.5q0 -51 -34 -85t-79 -34q-100 0 -100 100z" />
<glyph unicode="&#xc5;" horiz-adv-x="1402" d="M-20 0l8 45l67 29q33 12 58.5 45t87.5 139l530 916q61 104 105 184l24 14h131l21 -14q2 -6 21.5 -137t37.5 -242l131 -793q0 -6 2 -17l3 -16.5t3 -14.5t4.5 -14t7.5 -11.5t10 -10.5t14 -9t20 -9l96 -39l-10 -45h-527l9 45l110 41q51 16 51 57q0 18 -8 76l-41 266 q-2 10 -3 17.5t-3 13.5t-5 10t-4 7.5t-6 5.5t-8.5 3t-10.5 1h-11h-14h-17h-295q-51 0 -66.5 -8.5t-33.5 -42.5l-152 -289q-29 -57 -28 -76q0 -31 45 -43l117 -39l-9 -45h-462zM565 659q0 -18 8.5 -22t34.5 -4h248q23 0 33 1t18 7t8 18q0 4 -1 11.5t-3 16.5t-2 13l-57 383 q-6 47 -23 47q-14 0 -34 -40l-215 -394q-15 -25 -15 -37zM735 1626q0 92 64.5 148.5t150.5 56.5q195 0 195 -156q0 -102 -64.5 -158.5t-162.5 -56.5q-82 0 -132.5 41t-50.5 125zM838 1642q0 -117 94 -117q51 0 81 42t30 98q0 100 -93 100q-53 0 -82.5 -38t-29.5 -85z" />
<glyph unicode="&#xc6;" horiz-adv-x="1857" d="M-123 0l8 45l37 14q51 20 95 60.5t118 136.5l735 942q25 29 25 51q0 25 -39 39l-108 39l8 45h1136l11 -14l-60 -318h-53l-57 138q-29 70 -71 92t-185 22q-125 0 -162 -20.5t-47 -77.5l-72 -393q-2 -10 0 -17.5t9 -10.5t13 -3h17h6h150q51 0 67.5 8t46.5 51l82 115h47 l-82 -442h-47l-37 112q-14 43 -29.5 54.5t-64.5 11.5h-145q-20 0 -32.5 -3t-20 -16.5t-8.5 -19.5t-7 -37l-76 -416q-14 -76 30 -92t175 -16h25q141 0 190 24.5t117 112.5l127 162h68l-68 -365l-16 -14h-1043l8 45l76 29q25 10 41 21t26.5 19.5t17.5 31t9 33.5t8.5 49 t10.5 59l41 229q0 27 -62 27h-299q-59 0 -79.5 -11.5t-57.5 -64.5l-184 -262q-43 -63 -43 -92q0 -18 59 -37l96 -31l-10 -45h-471zM580 647q0 -14 45 -14h252q53 0 65 9t23 67l98 534q2 10 -2 22.5t-12 12.5q-20 0 -39 -29l-406 -540q-24 -35 -24 -62z" />
<glyph unicode="&#xc7;" horiz-adv-x="1212" d="M98 485q0 190 47.5 351t142.5 289t257 201t377 73q168 0 264 -53.5t96 -161.5q0 -23 -22 -60l-76 -131h-39q-43 315 -328 316q-106 0 -191 -54.5t-138.5 -138.5t-89.5 -191.5t-50 -207t-14 -191.5q0 -217 87 -327.5t279 -110.5q248 0 447 248l33 -35l-37 -61 q-25 -41 -36 -59.5t-37 -52.5t-46 -50.5t-54 -39t-71 -32.5t-88 -19.5t-113 -11.5l-14 -22q-16 -20 -16 -39q0 -14 28.5 -24.5t57 -36t28.5 -74.5q0 -172 -307 -209v57q160 25 160 99q0 31 -15.5 50t-33 26.5t-47.5 11.5l-13 28l95 133q-262 4 -392.5 120t-130.5 390z" />
<glyph unicode="&#xc8;" horiz-adv-x="1212" d="M-23 0l9 45l80 29q39 12 61.5 39.5t26.5 44t10 53.5l182 999q8 61 -80 93l-78 24l9 45h1011l13 -14l-60 -318h-53l-57 138q-29 70 -71 92t-185 22q-102 0 -149.5 -9t-63 -27.5t-23.5 -61.5l-72 -393q-4 -27 0.5 -34t22.5 -2t22 5h177q49 0 66.5 8t47.5 51l82 115h47 l-82 -442h-47l-37 112q-14 43 -29.5 54.5t-64.5 11.5h-172q-20 0 -32.5 -3t-19.5 -16.5t-8 -19.5t-7 -37l-76 -416q-4 -27 -1 -46t20.5 -30.5t33.5 -18.5t52 -10t60 -3h74h17q141 0 190 24.5t117 112.5l127 162h68l-68 -365l-16 -14h-1074zM488 1749l86 104h30l250 -354 l-43 -39z" />
<glyph unicode="&#xc9;" horiz-adv-x="1212" d="M-23 0l9 45l80 29q39 12 61.5 39.5t26.5 44t10 53.5l182 999q8 61 -80 93l-78 24l9 45h1011l13 -14l-60 -318h-53l-57 138q-29 70 -71 92t-185 22q-102 0 -149.5 -9t-63 -27.5t-23.5 -61.5l-72 -393q-4 -27 0.5 -34t22.5 -2t22 5h177q49 0 66.5 8t47.5 51l82 115h47 l-82 -442h-47l-37 112q-14 43 -29.5 54.5t-64.5 11.5h-172q-20 0 -32.5 -3t-19.5 -16.5t-8 -19.5t-7 -37l-76 -416q-4 -27 -1 -46t20.5 -30.5t33.5 -18.5t52 -10t60 -3h74h17q141 0 190 24.5t117 112.5l127 162h68l-68 -365l-16 -14h-1074zM719 1501l332 352h31l59 -127 l-385 -266z" />
<glyph unicode="&#xca;" horiz-adv-x="1212" d="M-23 0l9 45l80 29q39 12 61.5 39.5t26.5 44t10 53.5l182 999q8 61 -80 93l-78 24l9 45h1011l13 -14l-60 -318h-53l-57 138q-29 70 -71 92t-185 22q-102 0 -149.5 -9t-63 -27.5t-23.5 -61.5l-72 -393q-4 -27 0.5 -34t22.5 -2t22 5h177q49 0 66.5 8t47.5 51l82 115h47 l-82 -442h-47l-37 112q-14 43 -29.5 54.5t-64.5 11.5h-172q-20 0 -32.5 -3t-19.5 -16.5t-8 -19.5t-7 -37l-76 -416q-4 -27 -1 -46t20.5 -30.5t33.5 -18.5t52 -10t60 -3h74h17q141 0 190 24.5t117 112.5l127 162h68l-68 -365l-16 -14h-1074zM504 1491l273 342h90l172 -342 l-45 -31l-148 188q-31 39 -49 39t-49 -30l-201 -197z" />
<glyph unicode="&#xcb;" horiz-adv-x="1212" d="M-23 0l9 45l80 29q39 12 61.5 39.5t26.5 44t10 53.5l182 999q8 61 -80 93l-78 24l9 45h1011l13 -14l-60 -318h-53l-57 138q-29 70 -71 92t-185 22q-102 0 -149.5 -9t-63 -27.5t-23.5 -61.5l-72 -393q-4 -27 0.5 -34t22.5 -2t22 5h177q49 0 66.5 8t47.5 51l82 115h47 l-82 -442h-47l-37 112q-14 43 -29.5 54.5t-64.5 11.5h-172q-20 0 -32.5 -3t-19.5 -16.5t-8 -19.5t-7 -37l-76 -416q-4 -27 -1 -46t20.5 -30.5t33.5 -18.5t52 -10t60 -3h74h17q141 0 190 24.5t117 112.5l127 162h68l-68 -365l-16 -14h-1074zM473 1601q0 47 32 80t85 33 q41 0 68.5 -24.5t27.5 -69.5q0 -51 -33.5 -85t-78.5 -34q-101 0 -101 100zM887 1601q0 47 31.5 80t85.5 33q41 0 68.5 -24.5t27.5 -69.5q0 -51 -34 -85t-79 -34q-100 0 -100 100z" />
<glyph unicode="&#xcc;" horiz-adv-x="645" d="M-18 0l8 45l73 29q51 16 66.5 38.5t28.5 94.5l188 1003q6 37 -12.5 54.5t-67.5 35.5l-80 27l11 45h540l-10 -45l-74 -31q-80 -35 -94 -104l-192 -1032q-2 -10 -2 -19.5t2 -16.5t4 -13.5t8 -10.5t11 -7t14.5 -7t14.5 -5t17 -5l19 -6l75 -25l-10 -45h-538zM185 1749l86 104 h30l250 -354l-43 -39z" />
<glyph unicode="&#xcd;" horiz-adv-x="645" d="M-18 0l8 45l73 29q51 16 66.5 38.5t28.5 94.5l188 1003q6 37 -12.5 54.5t-67.5 35.5l-80 27l11 45h540l-10 -45l-74 -31q-80 -35 -94 -104l-192 -1032q-2 -10 -2 -19.5t2 -16.5t4 -13.5t8 -10.5t11 -7t14.5 -7t14.5 -5t17 -5l19 -6l75 -25l-10 -45h-538zM436 1501 l332 352h31l59 -127l-385 -266z" />
<glyph unicode="&#xce;" horiz-adv-x="645" d="M-18 0l8 45l73 29q51 16 66.5 38.5t28.5 94.5l188 1003q6 37 -12.5 54.5t-67.5 35.5l-80 27l11 45h540l-10 -45l-74 -31q-80 -35 -94 -104l-192 -1032q-2 -10 -2 -19.5t2 -16.5t4 -13.5t8 -10.5t11 -7t14.5 -7t14.5 -5t17 -5l19 -6l75 -25l-10 -45h-538zM211 1491 l273 342h90l172 -342l-45 -31l-148 188q-31 39 -49 39t-49 -30l-201 -197z" />
<glyph unicode="&#xcf;" horiz-adv-x="645" d="M-18 0l8 45l73 29q51 16 66.5 38.5t28.5 94.5l188 1003q6 37 -12.5 54.5t-67.5 35.5l-80 27l11 45h540l-10 -45l-74 -31q-80 -35 -94 -104l-192 -1032q-2 -10 -2 -19.5t2 -16.5t4 -13.5t8 -10.5t11 -7t14.5 -7t14.5 -5t17 -5l19 -6l75 -25l-10 -45h-538zM200 1601 q0 47 32 80t85 33q41 0 68.5 -24.5t27.5 -69.5q0 -51 -33.5 -85t-78.5 -34q-101 0 -101 100zM614 1601q0 47 31.5 80t85.5 33q41 0 68.5 -24.5t27.5 -69.5q0 -51 -34 -85t-79 -34q-100 0 -100 100z" />
<glyph unicode="&#xd0;" horiz-adv-x="1439" d="M-18 0l8 45l76 29q39 14 60 47t29.5 62.5t20.5 103.5l74 395h-217l20 90h215l80 436q8 59 -82 92l-78 27l9 45h712q137 0 223.5 -16.5t157 -66.5t101 -146t30.5 -248q0 -190 -44 -347t-135 -282t-247.5 -195.5t-367.5 -70.5h-645zM377 211q-8 -47 12.5 -76t73.5 -40 t88 -13t104 -2q188 0 310 111.5t171.5 284.5t49.5 407q0 123 -11.5 191.5t-50.5 122.5t-112.5 74.5t-198.5 20.5q-127 0 -177 -8t-67.5 -27.5t-29.5 -74.5l-68 -410h258l-16 -90h-258z" />
<glyph unicode="&#xd1;" horiz-adv-x="1439" d="M-16 0l8 45l74 29q20 8 35.5 19t24.5 20.5t16.5 33t10.5 35t9 50t10 55.5l174 887q2 8 2 15q0 64 -104 114l-56 24l9 45h290l31 -16l133 -246l408 -745q23 -39 39 -39t26 57l150 825q6 8 2 18.5t-2 14.5t-6 11.5t-9.5 9.5t-12.5 7t-15 6t-18.5 6t-20.5 7l-113 39l8 45 h480l-8 -45l-74 -31q-16 -6 -28.5 -14t-21 -12t-15.5 -14.5t-11 -14.5t-8 -18.5t-5 -16.5t-5.5 -21.5t-4.5 -23.5l-133 -633q-88 -420 -94 -514l-16 -14h-107l-24 14l-133 248l-412 739q-27 31 -35 33q-10 0 -18 -43l-148 -827q-1 -9 -1 -16q0 -36 32 -50q10 -4 51 -16 l121 -37l-8 -45h-477zM608 1532q117 178 207 178q47 0 145 -29q92 -31 142 -31q16 0 31.5 3.5t30.5 10.5t25.5 12t25 16.5t19.5 16.5t19 17l12 12l35 -26q-2 -2 -15 -22.5t-23.5 -33t-28 -35t-32.5 -35.5t-35.5 -28.5t-42 -22.5t-42.5 -7q-47 0 -139 30q-102 29 -139 29 q-29 0 -52.5 -6t-47 -24.5t-31 -25t-31.5 -30.5z" />
<glyph unicode="&#xd2;" horiz-adv-x="1439" d="M92 481q0 436 229.5 677t604.5 241q258 0 375.5 -131t117.5 -412q0 -244 -92 -441.5t-279.5 -319.5t-439.5 -122t-384 118t-132 390zM328 498q0 -215 84 -325t274 -110q127 0 228.5 79t156.5 201t84 250t29 245q0 84 -6.5 147.5t-27 127t-55 104t-96 66.5t-145.5 26 q-133 0 -238.5 -73t-166 -192.5t-91 -259t-30.5 -286.5zM643 1749l86 104h30l250 -354l-43 -39z" />
<glyph unicode="&#xd3;" horiz-adv-x="1439" d="M92 481q0 436 229.5 677t604.5 241q258 0 375.5 -131t117.5 -412q0 -244 -92 -441.5t-279.5 -319.5t-439.5 -122t-384 118t-132 390zM328 498q0 -215 84 -325t274 -110q127 0 228.5 79t156.5 201t84 250t29 245q0 84 -6.5 147.5t-27 127t-55 104t-96 66.5t-145.5 26 q-133 0 -238.5 -73t-166 -192.5t-91 -259t-30.5 -286.5zM854 1501l332 352h31l59 -127l-385 -266z" />
<glyph unicode="&#xd4;" horiz-adv-x="1439" d="M92 481q0 436 229.5 677t604.5 241q258 0 375.5 -131t117.5 -412q0 -244 -92 -441.5t-279.5 -319.5t-439.5 -122t-384 118t-132 390zM328 498q0 -215 84 -325t274 -110q127 0 228.5 79t156.5 201t84 250t29 245q0 84 -6.5 147.5t-27 127t-55 104t-96 66.5t-145.5 26 q-133 0 -238.5 -73t-166 -192.5t-91 -259t-30.5 -286.5zM680 1491l273 342h90l172 -342l-45 -31l-148 188q-31 39 -49 39t-49 -30l-201 -197z" />
<glyph unicode="&#xd5;" horiz-adv-x="1439" d="M92 481q0 436 229.5 677t604.5 241q258 0 375.5 -131t117.5 -412q0 -244 -92 -441.5t-279.5 -319.5t-439.5 -122t-384 118t-132 390zM328 498q0 -215 84 -325t274 -110q127 0 228.5 79t156.5 201t84 250t29 245q0 84 -6.5 147.5t-27 127t-55 104t-96 66.5t-145.5 26 q-133 0 -238.5 -73t-166 -192.5t-91 -259t-30.5 -286.5zM629 1532q117 178 207 178q47 0 145 -29q92 -31 142 -31q16 0 31.5 3.5t30.5 10.5t25.5 12t25 16.5t19.5 16.5t19 17l12 12l35 -26q-2 -2 -15 -22.5t-23.5 -33t-28 -35t-32.5 -35.5t-35.5 -28.5t-42 -22.5t-42.5 -7 q-47 0 -139 30q-102 29 -139 29q-29 0 -52.5 -6t-47 -24.5t-31 -25t-31.5 -30.5z" />
<glyph unicode="&#xd6;" horiz-adv-x="1439" d="M92 481q0 436 229.5 677t604.5 241q258 0 375.5 -131t117.5 -412q0 -244 -92 -441.5t-279.5 -319.5t-439.5 -122t-384 118t-132 390zM328 498q0 -215 84 -325t274 -110q127 0 228.5 79t156.5 201t84 250t29 245q0 84 -6.5 147.5t-27 127t-55 104t-96 66.5t-145.5 26 q-133 0 -238.5 -73t-166 -192.5t-91 -259t-30.5 -286.5zM639 1601q0 47 32 80t85 33q41 0 68.5 -24.5t27.5 -69.5q0 -51 -33.5 -85t-78.5 -34q-101 0 -101 100zM1053 1601q0 47 31.5 80t85.5 33q41 0 68.5 -24.5t27.5 -69.5q0 -51 -34 -85t-79 -34q-100 0 -100 100z" />
<glyph unicode="&#xd7;" horiz-adv-x="2009" d="M623 338l331 332l-331 334l92 90l332 -332l331 332l90 -90l-331 -332l333 -332l-92 -92l-334 332l-333 -334z" />
<glyph unicode="&#xd8;" horiz-adv-x="1439" d="M-74 61l203 168q-37 104 -37 252q0 436 229.5 677t604.5 241q283 0 405 -170l170 141l53 -65l-180 -152q45 -92 45 -297q0 -244 -92 -441.5t-279.5 -319.5t-439.5 -122q-324 0 -440 177l-188 -156zM328 498q0 -82 4 -101l821 682q-74 229 -299 230q-133 0 -238.5 -73 t-166 -192.5t-91 -259t-30.5 -286.5zM352 301q49 -238 334 -238q127 0 228.5 79t156.5 201t84 250t29 245q0 145 -2 151z" />
<glyph unicode="&#xd9;" horiz-adv-x="1402" d="M195 1327l8 45h530l-8 -45l-66 -29q-16 -8 -28.5 -15t-21.5 -13t-16 -15.5t-10 -13.5t-8 -16l-5 -16q-1 -3 -4 -17t-3 -18q-152 -776 -151 -863q0 -123 76.5 -185.5t187.5 -62.5q72 0 126 13.5t91 42t61.5 60.5t41 83t25.5 94t21 111q2 16 5 25l129 714q4 27 -16.5 54.5 t-63.5 42.5l-78 24l8 45h520l-8 -45l-74 -29q-25 -10 -42 -25.5t-27.5 -29.5t-18.5 -38.5t-11 -38t-7 -42t-6 -39.5l-101 -536q-23 -121 -47 -201t-72.5 -156.5t-117 -120.5t-175 -71t-253.5 -27q-229 0 -308 94.5t-79 294.5q0 98 78.5 471t78.5 377q0 41 -16 58.5t-68 34.5 zM574 1749l86 104h30l250 -354l-43 -39z" />
<glyph unicode="&#xda;" horiz-adv-x="1402" d="M195 1327l8 45h530l-8 -45l-66 -29q-16 -8 -28.5 -15t-21.5 -13t-16 -15.5t-10 -13.5t-8 -16l-5 -16q-1 -3 -4 -17t-3 -18q-152 -776 -151 -863q0 -123 76.5 -185.5t187.5 -62.5q72 0 126 13.5t91 42t61.5 60.5t41 83t25.5 94t21 111q2 16 5 25l129 714q4 27 -16.5 54.5 t-63.5 42.5l-78 24l8 45h520l-8 -45l-74 -29q-25 -10 -42 -25.5t-27.5 -29.5t-18.5 -38.5t-11 -38t-7 -42t-6 -39.5l-101 -536q-23 -121 -47 -201t-72.5 -156.5t-117 -120.5t-175 -71t-253.5 -27q-229 0 -308 94.5t-79 294.5q0 98 78.5 471t78.5 377q0 41 -16 58.5t-68 34.5 zM825 1501l332 352h31l59 -127l-385 -266z" />
<glyph unicode="&#xdb;" horiz-adv-x="1402" d="M195 1327l8 45h530l-8 -45l-66 -29q-16 -8 -28.5 -15t-21.5 -13t-16 -15.5t-10 -13.5t-8 -16l-5 -16q-1 -3 -4 -17t-3 -18q-152 -776 -151 -863q0 -123 76.5 -185.5t187.5 -62.5q72 0 126 13.5t91 42t61.5 60.5t41 83t25.5 94t21 111q2 16 5 25l129 714q4 27 -16.5 54.5 t-63.5 42.5l-78 24l8 45h520l-8 -45l-74 -29q-25 -10 -42 -25.5t-27.5 -29.5t-18.5 -38.5t-11 -38t-7 -42t-6 -39.5l-101 -536q-23 -121 -47 -201t-72.5 -156.5t-117 -120.5t-175 -71t-253.5 -27q-229 0 -308 94.5t-79 294.5q0 98 78.5 471t78.5 377q0 41 -16 58.5t-68 34.5 zM600 1491l273 342h90l172 -342l-45 -31l-148 188q-31 39 -49 39t-49 -30l-201 -197z" />
<glyph unicode="&#xdc;" horiz-adv-x="1402" d="M195 1327l8 45h530l-8 -45l-66 -29q-16 -8 -28.5 -15t-21.5 -13t-16 -15.5t-10 -13.5t-8 -16l-5 -16q-1 -3 -4 -17t-3 -18q-152 -776 -151 -863q0 -123 76.5 -185.5t187.5 -62.5q72 0 126 13.5t91 42t61.5 60.5t41 83t25.5 94t21 111q2 16 5 25l129 714q4 27 -16.5 54.5 t-63.5 42.5l-78 24l8 45h520l-8 -45l-74 -29q-25 -10 -42 -25.5t-27.5 -29.5t-18.5 -38.5t-11 -38t-7 -42t-6 -39.5l-101 -536q-23 -121 -47 -201t-72.5 -156.5t-117 -120.5t-175 -71t-253.5 -27q-229 0 -308 94.5t-79 294.5q0 98 78.5 471t78.5 377q0 41 -16 58.5t-68 34.5 zM579 1601q0 47 32 80t85 33q41 0 68.5 -24.5t27.5 -69.5q0 -51 -33.5 -85t-78.5 -34q-101 0 -101 100zM993 1601q0 47 31.5 80t85.5 33q41 0 68.5 -24.5t27.5 -69.5q0 -51 -34 -85t-79 -34q-100 0 -100 100z" />
<glyph unicode="&#xdd;" horiz-adv-x="1366" d="M174 1327l8 45h527l-9 -45l-106 -43q-6 -2 -18.5 -7t-17.5 -8t-10 -9.5t-5 -14.5q0 -18 28 -100l152 -434q23 -68 39 -68q14 0 45 49l240 379q90 139 90 168q0 18 -9.5 26.5t-35.5 20.5l-95 41l9 45h446l-8 -45l-58 -27q-12 -6 -21 -11t-16.5 -9t-15.5 -10l-12 -9 q-4 -3 -12.5 -12.5t-11.5 -12.5t-11 -15.5t-12 -16.5t-15.5 -20.5t-15.5 -22.5l-387 -551q-74 -106 -88 -190l-45 -256q2 -14 -2 -22.5t3 -16.5t7 -11t12.5 -8.5t16.5 -7.5t20.5 -7t24.5 -9l104 -37l-8 -45h-608l8 45l121 41q49 14 64.5 29.5t23.5 58.5l47 246q14 72 14 106 q0 23 -32 111l-203 522q-4 10 -11.5 30.5t-10.5 28t-10 20.5t-14 20.5t-17.5 16.5t-24.5 15zM807 1501l332 352h31l59 -127l-385 -266z" />
<glyph unicode="&#xde;" horiz-adv-x="1175" d="M-18 0l8 45l76 29q55 20 70.5 40.5t25.5 75.5l184 1020q10 59 -80 90l-80 27l11 45h540l-10 -45l-74 -31q-43 -18 -64.5 -38.5t-29.5 -65.5l-31 -166q111 59 220 59q217 0 305 -52t88 -220q0 -74 -27 -147.5t-84 -145t-166.5 -116t-257.5 -44.5q-41 0 -61 -2l-49 66 l10 18q14 -2 61 -2q160 0 255.5 92.5t95.5 258.5q0 113 -40 164t-178 51q-82 0 -134 -30t-60 -73l-137 -739q-2 -12 -2 -22.5t1 -16.5t6 -12.5t9 -9.5t13.5 -7t15.5 -6t19 -6t22 -6l90 -33l-8 -45h-553z" />
<glyph unicode="&#xdf;" horiz-adv-x="1136" d="M27 -453q49 178 133 643l116 641q10 49 -47 64l-131 33l6 41l134 20q35 4 54 24.5t28.5 45t31 81t49.5 107.5q59 109 187.5 175.5t265.5 66.5q121 0 194.5 -61.5t73.5 -182.5q0 -94 -49 -189t-88 -108q-203 -70 -203 -188q0 -45 31 -91t76 -88t89 -86t74.5 -102.5 t30.5 -122.5q0 -121 -105.5 -209t-266.5 -88q-102 0 -171 44t-69 108q0 6 21 51l47 96h36q12 -78 58.5 -148.5t128.5 -70.5q59 0 103 39t44 90q0 74 -47 140.5t-103.5 109.5t-103.5 109.5t-47 140.5q0 53 56.5 118.5t123 119t123 132t56.5 156.5q0 201 -168 201 q-72 0 -124 -35t-82 -98.5t-46.5 -116.5t-30.5 -125q-2 -16 -4 -22l-127 -602q-10 -43 -34.5 -161t-35 -163t-34 -134t-42 -134t-46 -100.5t-60.5 -92.5l-70 -78h-36z" />
<glyph unicode="&#xe0;" horiz-adv-x="1136" d="M55 211q0 123 35 257t103.5 260t190.5 208t275 82q96 0 148 -10q14 -2 33.5 -6.5t25.5 -4.5q18 0 64 17l71 22l21 -20l-154 -649q-20 -88 -20 -160q0 -41 30.5 -71t71.5 -30q53 0 185 60l-13 -60q-184 -133 -286 -133q-49 0 -106.5 46.5t-78.5 46.5q-4 0 -139 -46.5 t-227 -46.5q-98 0 -164 61.5t-66 176.5zM268 213q0 -47 44 -94t91 -47q45 0 83 10t65 24.5t48.5 42t33.5 49t23.5 59.5t16.5 60.5t13 64.5t12 60l76 344q6 27 6 49q0 46 -26 69q-39 34 -101 34q-104 0 -184 -79t-121 -198.5t-60.5 -233.5t-19.5 -214zM369 1395l86 104h30 l250 -354l-43 -39z" />
<glyph unicode="&#xe1;" horiz-adv-x="1136" d="M55 211q0 123 35 257t103.5 260t190.5 208t275 82q96 0 148 -10q14 -2 33.5 -6.5t25.5 -4.5q18 0 64 17l71 22l21 -20l-154 -649q-20 -88 -20 -160q0 -41 30.5 -71t71.5 -30q53 0 185 60l-13 -60q-184 -133 -286 -133q-49 0 -106.5 46.5t-78.5 46.5q-4 0 -139 -46.5 t-227 -46.5q-98 0 -164 61.5t-66 176.5zM268 213q0 -47 44 -94t91 -47q45 0 83 10t65 24.5t48.5 42t33.5 49t23.5 59.5t16.5 60.5t13 64.5t12 60l76 344q6 27 6 49q0 46 -26 69q-39 34 -101 34q-104 0 -184 -79t-121 -198.5t-60.5 -233.5t-19.5 -214zM620 1147l332 352h31 l59 -127l-385 -266z" />
<glyph unicode="&#xe2;" horiz-adv-x="1136" d="M55 211q0 123 35 257t103.5 260t190.5 208t275 82q96 0 148 -10q14 -2 33.5 -6.5t25.5 -4.5q18 0 64 17l71 22l21 -20l-154 -649q-20 -88 -20 -160q0 -41 30.5 -71t71.5 -30q53 0 185 60l-13 -60q-184 -133 -286 -133q-49 0 -106.5 46.5t-78.5 46.5q-4 0 -139 -46.5 t-227 -46.5q-98 0 -164 61.5t-66 176.5zM268 213q0 -47 44 -94t91 -47q45 0 83 10t65 24.5t48.5 42t33.5 49t23.5 59.5t16.5 60.5t13 64.5t12 60l76 344q6 27 6 49q0 46 -26 69q-39 34 -101 34q-104 0 -184 -79t-121 -198.5t-60.5 -233.5t-19.5 -214zM415 1137l273 342h90 l172 -342l-45 -31l-148 188q-31 39 -49 39t-49 -30l-201 -197z" />
<glyph unicode="&#xe3;" horiz-adv-x="1136" d="M55 211q0 123 35 257t103.5 260t190.5 208t275 82q96 0 148 -10q14 -2 33.5 -6.5t25.5 -4.5q18 0 64 17l71 22l21 -20l-154 -649q-20 -88 -20 -160q0 -41 30.5 -71t71.5 -30q53 0 185 60l-13 -60q-184 -133 -286 -133q-49 0 -106.5 46.5t-78.5 46.5q-4 0 -139 -46.5 t-227 -46.5q-98 0 -164 61.5t-66 176.5zM268 213q0 -47 44 -94t91 -47q45 0 83 10t65 24.5t48.5 42t33.5 49t23.5 59.5t16.5 60.5t13 64.5t12 60l76 344q6 27 6 49q0 46 -26 69q-39 34 -101 34q-104 0 -184 -79t-121 -198.5t-60.5 -233.5t-19.5 -214zM344 1178 q117 178 207 178q47 0 145 -29q92 -31 142 -31q16 0 31.5 3.5t30.5 10.5t25.5 12t25 16.5t19.5 16.5t19 17l12 12l35 -26q-2 -2 -15 -22.5t-23.5 -33t-28 -35t-32.5 -35.5t-35.5 -28.5t-42 -22.5t-42.5 -7q-47 0 -139 30q-102 29 -139 29q-29 0 -52.5 -6t-47 -24.5t-31 -25 t-31.5 -30.5z" />
<glyph unicode="&#xe4;" horiz-adv-x="1136" d="M55 211q0 123 35 257t103.5 260t190.5 208t275 82q96 0 148 -10q14 -2 33.5 -6.5t25.5 -4.5q18 0 64 17l71 22l21 -20l-154 -649q-20 -88 -20 -160q0 -41 30.5 -71t71.5 -30q53 0 185 60l-13 -60q-184 -133 -286 -133q-49 0 -106.5 46.5t-78.5 46.5q-4 0 -139 -46.5 t-227 -46.5q-98 0 -164 61.5t-66 176.5zM268 213q0 -47 44 -94t91 -47q45 0 83 10t65 24.5t48.5 42t33.5 49t23.5 59.5t16.5 60.5t13 64.5t12 60l76 344q6 27 6 49q0 46 -26 69q-39 34 -101 34q-104 0 -184 -79t-121 -198.5t-60.5 -233.5t-19.5 -214zM405 1247q0 47 32 80 t85 33q41 0 68.5 -24.5t27.5 -69.5q0 -51 -33.5 -85t-78.5 -34q-101 0 -101 100zM819 1247q0 47 31.5 80t85.5 33q41 0 68.5 -24.5t27.5 -69.5q0 -51 -34 -85t-79 -34q-100 0 -100 100z" />
<glyph unicode="&#xe5;" horiz-adv-x="1136" d="M55 211q0 123 35 257t103.5 260t190.5 208t275 82q96 0 148 -10q14 -2 33.5 -6.5t25.5 -4.5q18 0 64 17l71 22l21 -20l-154 -649q-20 -88 -20 -160q0 -41 30.5 -71t71.5 -30q53 0 185 60l-13 -60q-184 -133 -286 -133q-49 0 -106.5 46.5t-78.5 46.5q-4 0 -139 -46.5 t-227 -46.5q-98 0 -164 61.5t-66 176.5zM268 213q0 -47 44 -94t91 -47q45 0 83 10t65 24.5t48.5 42t33.5 49t23.5 59.5t16.5 60.5t13 64.5t12 60l76 344q6 27 6 49q0 46 -26 69q-39 34 -101 34q-104 0 -184 -79t-121 -198.5t-60.5 -233.5t-19.5 -214zM540 1272 q0 92 64.5 148.5t150.5 56.5q195 0 195 -156q0 -102 -64.5 -158.5t-162.5 -56.5q-82 0 -132.5 41t-50.5 125zM643 1288q0 -117 94 -117q51 0 81 42t30 98q0 100 -93 100q-53 0 -82.5 -38t-29.5 -85z" />
<glyph unicode="&#xe6;" horiz-adv-x="1515" d="M55 211q0 123 35 257t103.5 260t190.5 208t275 82q63 0 109 -4q35 -6 47 -6q47 0 78 39l29 34l53 -2l-21 -112q-6 -33 13 -33q4 0 104 42t172 42q272 0 273 -207q0 -66 -23 -116t-52.5 -79.5t-80.5 -51t-89 -32t-97 -20.5l-160 -31q-16 -4 -45 -9t-37 -7t-25.5 -6 t-20.5 -10.5t-10.5 -13.5t-8.5 -20.5t-2 -27.5t-1 -39q0 -260 207 -260q141 0 356 117l-16 -74q-236 -158 -461 -158q-74 0 -130 38t-87 75t-39 37t-75.5 -37t-164 -75t-169.5 -38q-98 0 -164 61.5t-66 176.5zM268 213q0 -47 44 -94t91 -47q45 0 83 10t65 24.5t48.5 42 t33.5 49t23.5 59.5t16.5 60.5t13 64.5t12 60l76 344q18 84 -20.5 118t-100.5 34q-104 0 -184 -79t-121 -198.5t-60.5 -233.5t-19.5 -214zM897 578q0 -35 21 -35q25 0 69 8l121 24q195 37 195 207q0 156 -132 156q-66 0 -122 -51t-86.5 -119t-48 -121t-17.5 -69z" />
<glyph unicode="&#xe7;" horiz-adv-x="833" d="M49 317q0 317 168 509t418 192q104 0 160.5 -39t56.5 -111q0 -12 -21 -47l-100 -143h-37q0 260 -153 260q-82 0 -148.5 -100.5t-98.5 -226.5t-32 -232q0 -145 44 -218t159 -73q125 0 319 113l-14 -72q-147 -100 -287 -135l-26 -41q-16 -20 -17 -39q0 -14 29 -24.5 t57.5 -36t28.5 -74.5q0 -172 -307 -209v57q160 25 160 99q0 31 -15.5 50t-33 26.5t-48.5 11.5l-12 28l94 135q-37 -4 -55 -4q-289 0 -289 344z" />
<glyph unicode="&#xe8;" horiz-adv-x="909" d="M59 303q0 285 164 500t426 215q272 0 273 -207q0 -66 -22.5 -116t-52.5 -79.5t-81 -51t-89 -32t-97 -20.5l-160 -31q-16 -4 -45 -9t-37 -7l-25 -6q-16 -4 -19 -10.5t-10.5 -13.5t-8.5 -20.5t-2 -27.5t-1 -39q0 -260 209 -260q133 0 353 117l-17 -74q-195 -113 -323 -141 q-72 -16 -138 -17q-297 0 -297 330zM303 578q0 -35 21 -35q25 0 69 8l121 24q195 37 195 207q0 156 -131 156q-66 0 -122.5 -51t-87 -119t-48 -121t-17.5 -69zM347 1395l86 104h30l250 -354l-43 -39z" />
<glyph unicode="&#xe9;" horiz-adv-x="909" d="M59 303q0 285 164 500t426 215q272 0 273 -207q0 -66 -22.5 -116t-52.5 -79.5t-81 -51t-89 -32t-97 -20.5l-160 -31q-16 -4 -45 -9t-37 -7l-25 -6q-16 -4 -19 -10.5t-10.5 -13.5t-8.5 -20.5t-2 -27.5t-1 -39q0 -260 209 -260q133 0 353 117l-17 -74q-195 -113 -323 -141 q-72 -16 -138 -17q-297 0 -297 330zM303 578q0 -35 21 -35q25 0 69 8l121 24q195 37 195 207q0 156 -131 156q-66 0 -122.5 -51t-87 -119t-48 -121t-17.5 -69zM587 1147l332 352h31l59 -127l-385 -266z" />
<glyph unicode="&#xea;" horiz-adv-x="909" d="M59 303q0 285 164 500t426 215q272 0 273 -207q0 -66 -22.5 -116t-52.5 -79.5t-81 -51t-89 -32t-97 -20.5l-160 -31q-16 -4 -45 -9t-37 -7l-25 -6q-16 -4 -19 -10.5t-10.5 -13.5t-8.5 -20.5t-2 -27.5t-1 -39q0 -260 209 -260q133 0 353 117l-17 -74q-195 -113 -323 -141 q-72 -16 -138 -17q-297 0 -297 330zM303 578q0 -35 21 -35q25 0 69 8l121 24q195 37 195 207q0 156 -131 156q-66 0 -122.5 -51t-87 -119t-48 -121t-17.5 -69zM362 1137l273 342h90l172 -342l-45 -31l-148 188q-31 39 -49 39t-49 -30l-201 -197z" />
<glyph unicode="&#xeb;" horiz-adv-x="909" d="M59 303q0 285 164 500t426 215q272 0 273 -207q0 -66 -22.5 -116t-52.5 -79.5t-81 -51t-89 -32t-97 -20.5l-160 -31q-16 -4 -45 -9t-37 -7l-25 -6q-16 -4 -19 -10.5t-10.5 -13.5t-8.5 -20.5t-2 -27.5t-1 -39q0 -260 209 -260q133 0 353 117l-17 -74q-195 -113 -323 -141 q-72 -16 -138 -17q-297 0 -297 330zM303 578q0 -35 21 -35q25 0 69 8l121 24q195 37 195 207q0 156 -131 156q-66 0 -122.5 -51t-87 -119t-48 -121t-17.5 -69zM291 1247q0 47 32 80t85 33q41 0 68.5 -24.5t27.5 -69.5q0 -51 -33.5 -85t-78.5 -34q-101 0 -101 100zM705 1247 q0 47 31.5 80t85.5 33q41 0 68.5 -24.5t27.5 -69.5q0 -51 -34 -85t-79 -34q-100 0 -100 100z" />
<glyph unicode="&#xec;" horiz-adv-x="606" d="M82 891l10 45q274 82 322 82q12 0 40.5 -23.5t28.5 -52.5q0 -20 -41 -172l-104 -389q-35 -133 -35 -164q0 -49 19.5 -77.5t37 -35t35.5 -6.5q72 0 199 64l-14 -58q-188 -131 -308 -131q-59 0 -115.5 52.5t-56.5 109.5q0 51 39 197l90 338q31 115 31 133q0 57 -43 71 q-18 7 -135 17zM72 1395l86 104h30l250 -354l-43 -39z" />
<glyph unicode="&#xed;" horiz-adv-x="606" d="M82 891l10 45q274 82 322 82q12 0 40.5 -23.5t28.5 -52.5q0 -20 -41 -172l-104 -389q-35 -133 -35 -164q0 -49 19.5 -77.5t37 -35t35.5 -6.5q72 0 199 64l-14 -58q-188 -131 -308 -131q-59 0 -115.5 52.5t-56.5 109.5q0 51 39 197l90 338q31 115 31 133q0 57 -43 71 q-18 7 -135 17zM313 1147l332 352h31l59 -127l-385 -266z" />
<glyph unicode="&#xee;" horiz-adv-x="606" d="M82 891l10 45q274 82 322 82q12 0 40.5 -23.5t28.5 -52.5q0 -20 -41 -172l-104 -389q-35 -133 -35 -164q0 -49 19.5 -77.5t37 -35t35.5 -6.5q72 0 199 64l-14 -58q-188 -131 -308 -131q-59 0 -115.5 52.5t-56.5 109.5q0 51 39 197l90 338q31 115 31 133q0 57 -43 71 q-18 7 -135 17zM108 1137l273 342h90l172 -342l-45 -31l-148 188q-31 39 -49 39t-49 -30l-201 -197z" />
<glyph unicode="&#xef;" horiz-adv-x="606" d="M82 891l10 45q274 82 322 82q12 0 40.5 -23.5t28.5 -52.5q0 -20 -41 -172l-104 -389q-35 -133 -35 -164q0 -49 19.5 -77.5t37 -35t35.5 -6.5q72 0 199 64l-14 -58q-188 -131 -308 -131q-59 0 -115.5 52.5t-56.5 109.5q0 51 39 197l90 338q31 115 31 133q0 57 -43 71 q-18 7 -135 17zM108 1247q0 47 32 80t85 33q41 0 68.5 -24.5t27.5 -69.5q0 -51 -33.5 -85t-78.5 -34q-101 0 -101 100zM522 1247q0 47 31.5 80t85.5 33q41 0 68.5 -24.5t27.5 -69.5q0 -51 -34 -85t-79 -34q-100 0 -100 100z" />
<glyph unicode="&#xf0;" horiz-adv-x="1136" d="M82 342q0 289 158.5 482.5t421.5 193.5q92 0 147 -43q-10 59 -17.5 92t-32 82t-65.5 88l-248 -133l-45 72l230 122q-84 72 -185 82l39 95q160 -35 265 -113l200 108l41 -73l-172 -92q49 -49 80 -89t63.5 -112t48 -179.5t15.5 -252.5q0 -307 -167 -503t-453 -196 q-162 0 -243 88t-81 281zM295 352q0 -131 38 -205.5t152 -74.5q86 0 154 62.5t103.5 158.5t53 192.5t17.5 182.5q0 141 -12 178q-31 92 -168 92q-109 0 -190 -104.5t-114.5 -233.5t-33.5 -248z" />
<glyph unicode="&#xf1;" horiz-adv-x="1212" d="M90 885l10 53q184 80 265 80q41 0 76.5 -40t54.5 -40q37 0 159.5 40t231.5 40q98 0 133 -43t35 -121q0 -31 -17 -90l-116 -465q-14 -57 -15 -111q0 -35 25.5 -62.5t71.5 -27.5q70 0 202 76l-14 -65q-4 -2 -42 -28t-73 -47.5t-87 -41t-95 -19.5q-74 0 -132 55.5t-58 139.5 q0 23 20 104l113 445q14 53 14 76q0 127 -125 127q-84 0 -166 -54q-43 -29 -56 -40t-38 -58t-45 -133l-98 -395q-23 -90 -23 -107q0 -23 2 -38t8 -24.5t10.5 -12.5t14.5 -8l14 -7l-6 -27q-119 -35 -180 -34q-23 0 -43.5 29.5t-22.5 76.5q0 25 17 80l135 537q23 84 22 106 q0 49 -23.5 66.5t-78.5 17.5q-14 0 -80 -10zM371 1178q117 178 207 178q47 0 145 -29q92 -31 142 -31q16 0 31.5 3.5t30.5 10.5t25.5 12t25 16.5t19.5 16.5t19 17l12 12l35 -26q-2 -2 -15 -22.5t-23.5 -33t-28 -35t-32.5 -35.5t-35.5 -28.5t-42 -22.5t-42.5 -7 q-47 0 -139 30q-102 29 -139 29q-29 0 -52.5 -6t-47 -24.5t-31 -25t-31.5 -30.5z" />
<glyph unicode="&#xf2;" horiz-adv-x="1024" d="M41 342q0 293 164 484.5t446 191.5q334 0 334 -346q0 -307 -167 -503t-453 -196q-162 0 -243 88t-81 281zM254 352q0 -90 11 -148.5t55.5 -104.5t123.5 -46q86 0 154 64.5t103.5 164t53 199t17.5 187.5q0 127 -37 198.5t-143 71.5q-109 0 -189.5 -104.5t-114.5 -233.5 t-34 -248zM332 1395l86 104h30l250 -354l-43 -39z" />
<glyph unicode="&#xf3;" horiz-adv-x="1024" d="M41 342q0 293 164 484.5t446 191.5q334 0 334 -346q0 -307 -167 -503t-453 -196q-162 0 -243 88t-81 281zM254 352q0 -90 11 -148.5t55.5 -104.5t123.5 -46q86 0 154 64.5t103.5 164t53 199t17.5 187.5q0 127 -37 198.5t-143 71.5q-109 0 -189.5 -104.5t-114.5 -233.5 t-34 -248zM563 1147l332 352h31l59 -127l-385 -266z" />
<glyph unicode="&#xf4;" horiz-adv-x="1024" d="M41 342q0 293 164 484.5t446 191.5q334 0 334 -346q0 -307 -167 -503t-453 -196q-162 0 -243 88t-81 281zM254 352q0 -90 11 -148.5t55.5 -104.5t123.5 -46q86 0 154 64.5t103.5 164t53 199t17.5 187.5q0 127 -37 198.5t-143 71.5q-109 0 -189.5 -104.5t-114.5 -233.5 t-34 -248zM358 1137l273 342h90l172 -342l-45 -31l-148 188q-31 39 -49 39t-49 -30l-201 -197z" />
<glyph unicode="&#xf5;" horiz-adv-x="1024" d="M41 342q0 293 164 484.5t446 191.5q334 0 334 -346q0 -307 -167 -503t-453 -196q-162 0 -243 88t-81 281zM254 352q0 -90 11 -148.5t55.5 -104.5t123.5 -46q86 0 154 64.5t103.5 164t53 199t17.5 187.5q0 127 -37 198.5t-143 71.5q-109 0 -189.5 -104.5t-114.5 -233.5 t-34 -248zM338 1178q117 178 207 178q47 0 145 -29q92 -31 142 -31q16 0 31.5 3.5t30.5 10.5t25.5 12t25 16.5t19.5 16.5t19 17l12 12l35 -26q-2 -2 -15 -22.5t-23.5 -33t-28 -35t-32.5 -35.5t-35.5 -28.5t-42 -22.5t-42.5 -7q-47 0 -139 30q-102 29 -139 29q-29 0 -52.5 -6 t-47 -24.5t-31 -25t-31.5 -30.5z" />
<glyph unicode="&#xf6;" horiz-adv-x="1024" d="M41 342q0 293 164 484.5t446 191.5q334 0 334 -346q0 -307 -167 -503t-453 -196q-162 0 -243 88t-81 281zM254 352q0 -90 11 -148.5t55.5 -104.5t123.5 -46q86 0 154 64.5t103.5 164t53 199t17.5 187.5q0 127 -37 198.5t-143 71.5q-109 0 -189.5 -104.5t-114.5 -233.5 t-34 -248zM389 1247q0 47 32 80t85 33q41 0 68.5 -24.5t27.5 -69.5q0 -51 -33.5 -85t-78.5 -34q-101 0 -101 100zM803 1247q0 47 31.5 80t85.5 33q41 0 68.5 -24.5t27.5 -69.5q0 -51 -34 -85t-79 -34q-100 0 -100 100z" />
<glyph unicode="&#xf7;" horiz-adv-x="2009" d="M510 633v129h1067v-129h-1067zM928 313q0 47 33.5 82t82.5 35q47 0 81 -35t34 -82t-33.5 -80.5t-81.5 -33.5q-49 0 -82.5 33.5t-33.5 80.5zM928 1079q0 47 33.5 82t82.5 35q47 0 81 -35t34 -82t-33.5 -80.5t-81.5 -33.5q-49 0 -82.5 33.5t-33.5 80.5z" />
<glyph unicode="&#xf8;" horiz-adv-x="1024" d="M-106 25l172 147q-23 41 -23 123q0 311 152.5 517t431.5 206q92 0 158.5 -20.5t91 -41t53.5 -55.5l131 113l53 -64l-147 -127q16 -90 16 -137q0 -172 -62.5 -332.5t-189.5 -270.5t-291 -110q-152 0 -218 26t-122 91l-151 -129zM256 328l508 438q-4 31 -11.5 52.5 t-23.5 53t-52 49t-87 17.5q-96 0 -168 -71.5t-104.5 -180t-47 -198.5t-14.5 -160zM262 221q10 -35 18.5 -57.5t29 -51t58.5 -44t89 -15.5q72 0 129 49.5t90 120t55.5 157.5t30.5 156.5t8 125.5z" />
<glyph unicode="&#xf9;" horiz-adv-x="1212" d="M106 899l11 45q225 74 293 74q31 0 56.5 -27.5t25.5 -50.5q0 -18 -9 -51l-121 -512q-33 -141 -32 -184q0 -20 2 -35t13 -38.5t40 -35.5t74 -12q115 0 181.5 70.5t107.5 254.5l94 430q8 37 -20.5 55.5t-104.5 18.5q-8 0 -21.5 -1t-19.5 -1l8 47q31 8 81 23.5t71.5 21.5 t52.5 13.5t50 10.5t38 3q41 0 63.5 -30t22.5 -54q0 -14 -16 -80l-119 -481q-29 -119 -29 -170q0 -39 25.5 -72t81.5 -33q47 0 182 68l-10 -57q-170 -135 -291 -136q-43 0 -98.5 48.5t-71.5 48.5q-14 0 -169 -48.5t-241 -48.5q-180 0 -180 172q0 39 18 95l97 424q2 6 12 45 t17.5 71.5t7.5 42.5q0 23 -4.5 37t-26 27.5t-62.5 13.5q-53 0 -80 -2zM344 1395l86 104h30l250 -354l-43 -39z" />
<glyph unicode="&#xfa;" horiz-adv-x="1212" d="M106 899l11 45q225 74 293 74q31 0 56.5 -27.5t25.5 -50.5q0 -18 -9 -51l-121 -512q-33 -141 -32 -184q0 -20 2 -35t13 -38.5t40 -35.5t74 -12q115 0 181.5 70.5t107.5 254.5l94 430q8 37 -20.5 55.5t-104.5 18.5q-8 0 -21.5 -1t-19.5 -1l8 47q31 8 81 23.5t71.5 21.5 t52.5 13.5t50 10.5t38 3q41 0 63.5 -30t22.5 -54q0 -14 -16 -80l-119 -481q-29 -119 -29 -170q0 -39 25.5 -72t81.5 -33q47 0 182 68l-10 -57q-170 -135 -291 -136q-43 0 -98.5 48.5t-71.5 48.5q-14 0 -169 -48.5t-241 -48.5q-180 0 -180 172q0 39 18 95l97 424q2 6 12 45 t17.5 71.5t7.5 42.5q0 23 -4.5 37t-26 27.5t-62.5 13.5q-53 0 -80 -2zM637 1147l332 352h31l59 -127l-385 -266z" />
<glyph unicode="&#xfb;" horiz-adv-x="1212" d="M106 899l11 45q225 74 293 74q31 0 56.5 -27.5t25.5 -50.5q0 -18 -9 -51l-121 -512q-33 -141 -32 -184q0 -20 2 -35t13 -38.5t40 -35.5t74 -12q115 0 181.5 70.5t107.5 254.5l94 430q8 37 -20.5 55.5t-104.5 18.5q-8 0 -21.5 -1t-19.5 -1l8 47q31 8 81 23.5t71.5 21.5 t52.5 13.5t50 10.5t38 3q41 0 63.5 -30t22.5 -54q0 -14 -16 -80l-119 -481q-29 -119 -29 -170q0 -39 25.5 -72t81.5 -33q47 0 182 68l-10 -57q-170 -135 -291 -136q-43 0 -98.5 48.5t-71.5 48.5q-14 0 -169 -48.5t-241 -48.5q-180 0 -180 172q0 39 18 95l97 424q2 6 12 45 t17.5 71.5t7.5 42.5q0 23 -4.5 37t-26 27.5t-62.5 13.5q-53 0 -80 -2zM411 1137l273 342h90l172 -342l-45 -31l-148 188q-31 39 -49 39t-49 -30l-201 -197z" />
<glyph unicode="&#xfc;" horiz-adv-x="1212" d="M106 899l11 45q225 74 293 74q31 0 56.5 -27.5t25.5 -50.5q0 -18 -9 -51l-121 -512q-33 -141 -32 -184q0 -20 2 -35t13 -38.5t40 -35.5t74 -12q115 0 181.5 70.5t107.5 254.5l94 430q8 37 -20.5 55.5t-104.5 18.5q-8 0 -21.5 -1t-19.5 -1l8 47q31 8 81 23.5t71.5 21.5 t52.5 13.5t50 10.5t38 3q41 0 63.5 -30t22.5 -54q0 -14 -16 -80l-119 -481q-29 -119 -29 -170q0 -39 25.5 -72t81.5 -33q47 0 182 68l-10 -57q-170 -135 -291 -136q-43 0 -98.5 48.5t-71.5 48.5q-14 0 -169 -48.5t-241 -48.5q-180 0 -180 172q0 39 18 95l97 424q2 6 12 45 t17.5 71.5t7.5 42.5q0 23 -4.5 37t-26 27.5t-62.5 13.5q-53 0 -80 -2zM411 1247q0 47 32 80t85 33q41 0 68.5 -24.5t27.5 -69.5q0 -51 -33.5 -85t-78.5 -34q-101 0 -101 100zM825 1247q0 47 31.5 80t85.5 33q41 0 68.5 -24.5t27.5 -69.5q0 -51 -34 -85t-79 -34 q-100 0 -100 100z" />
<glyph unicode="&#xfd;" horiz-adv-x="1024" d="M10 -332l6 31q72 4 150 26.5t146.5 80t68.5 137.5q0 111 -20.5 309.5t-78 404t-135.5 205.5q-35 0 -94 -33v56q2 2 33 29.5t44 39t42 29.5t56.5 26.5t56.5 8.5q84 0 134 -135t63.5 -298t27.5 -298t32.5 -135t87 124.5t131 290.5t62.5 256q0 80 -96 80q-14 0 -25 -10l3 45 q6 4 32.5 20.5t38.5 23.5t35 17.5t44.5 14.5t45.5 4q45 0 72.5 -34t27.5 -93q0 -80 -158.5 -395.5t-365.5 -610.5t-313 -295q-25 0 -70 25zM583 1147l332 352h31l59 -127l-385 -266z" />
<glyph unicode="&#xfe;" d="M-143 -410l8 45l80 29q27 10 44 32.5t24 46.5t20 77l309 1335q18 78 18 121q0 31 -12 44t-51 23l-84 23l6 33q43 8 177 42t161 34q10 0 26.5 -14.5t16.5 -26.5q0 -23 -16 -88l-92 -400q12 0 126.5 36t233.5 36q125 0 169 -76t44 -213q0 -338 -150.5 -547t-451.5 -209 q-8 0 -88 7q-37 6 -66 6q-33 0 -51 -76l-47 -178q-6 -25 6 -35t51 -23q4 -2 6 -2l115 -37l-8 -45h-524zM344 244q0 -98 36 -144.5t134 -46.5q78 0 140.5 53.5t98 131t59.5 175t32 175.5t8 143q0 86 -38 137.5t-112 51.5q-219 0 -286 -306q-72 -331 -72 -370z" />
<glyph unicode="&#xff;" horiz-adv-x="1024" d="M10 -332l6 31q72 4 150 26.5t146.5 80t68.5 137.5q0 111 -20.5 309.5t-78 404t-135.5 205.5q-35 0 -94 -33v56q2 2 33 29.5t44 39t42 29.5t56.5 26.5t56.5 8.5q84 0 134 -135t63.5 -298t27.5 -298t32.5 -135t87 124.5t131 290.5t62.5 256q0 80 -96 80q-14 0 -25 -10l3 45 q6 4 32.5 20.5t38.5 23.5t35 17.5t44.5 14.5t45.5 4q45 0 72.5 -34t27.5 -93q0 -80 -158.5 -395.5t-365.5 -610.5t-313 -295q-25 0 -70 25zM338 1247q0 47 32 80t85 33q41 0 68.5 -24.5t27.5 -69.5q0 -51 -33.5 -85t-78.5 -34q-101 0 -101 100zM752 1247q0 47 31.5 80 t85.5 33q41 0 68.5 -24.5t27.5 -69.5q0 -51 -34 -85t-79 -34q-100 0 -100 100z" />
<glyph unicode="&#x131;" horiz-adv-x="606" d="M82 891l10 45q274 82 322 82q12 0 40.5 -23.5t28.5 -52.5q0 -20 -41 -172l-104 -389q-35 -133 -35 -164q0 -49 19.5 -77.5t37 -35t35.5 -6.5q72 0 199 64l-14 -58q-188 -131 -308 -131q-59 0 -115.5 52.5t-56.5 109.5q0 51 39 197l90 338q31 115 31 133q0 57 -43 71 q-18 7 -135 17z" />
<glyph unicode="&#x152;" horiz-adv-x="1933" d="M92 481q0 436 229.5 677t604.5 241q61 0 196 -13q121 -14 221 -14h623l12 -14l-59 -318h-53l-58 138q-29 70 -70.5 92t-185.5 22q-133 0 -168.5 -18.5t-46.5 -79.5l-71 -393q-2 -16 10 -23.5t35 -7.5h155q49 0 66.5 8t48.5 51l82 115h47l-82 -442h-47l-37 112 q-14 43 -29.5 54.5t-64.5 11.5h-152q-20 0 -32.5 -3t-19.5 -16.5t-8 -19.5t-7 -37l-76 -416q-4 -27 -1 -46t19.5 -30.5t31 -18.5t48 -10t55.5 -3h66h17q141 0 190 24.5t117 112.5l127 162h67l-67 -365l-17 -14h-714q-39 0 -211 -12q-150 -14 -275 -15q-252 0 -384 118 t-132 390zM328 498q0 -215 84 -325t274 -110q82 0 134 12.5t77 37t33 44t14 54.5l166 913q16 94 -42 139.5t-214 45.5q-133 0 -238.5 -73t-166 -192.5t-91 -259t-30.5 -286.5z" />
<glyph unicode="&#x153;" horiz-adv-x="1554" d="M41 342q0 293 164 484.5t446 191.5q70 0 124 -23.5t78 -50t44.5 -50.5t30.5 -24q6 0 48 37t124 74t188 37q272 0 273 -207q0 -66 -22.5 -116t-52.5 -79.5t-81 -51t-89 -32t-97 -20.5l-160 -31q-16 -4 -45 -9t-37 -7t-25.5 -6t-20.5 -10.5t-10.5 -13.5t-8.5 -20.5 t-2 -27.5t-1 -39q0 -260 211 -260q133 0 353 117l-17 -74q-195 -113 -323 -141q-72 -16 -138 -17q-78 0 -131 32t-79.5 63.5t-39.5 31.5q-8 0 -55 -31.5t-133 -63.5t-192 -32q-162 0 -243 88t-81 281zM254 352q0 -90 11 -148.5t55.5 -104.5t123.5 -46q86 0 154 64.5 t103.5 164t53 199t17.5 187.5q0 127 -37 198.5t-143 71.5q-109 0 -189.5 -104.5t-114.5 -233.5t-34 -248zM942 578q0 -35 21 -35q25 0 69 8l121 24q195 37 195 207q0 156 -131 156q-66 0 -122.5 -51t-87 -119t-48 -121t-17.5 -69z" />
<glyph unicode="&#x178;" horiz-adv-x="1366" d="M174 1327l8 45h527l-9 -45l-106 -43q-6 -2 -18.5 -7t-17.5 -8t-10 -9.5t-5 -14.5q0 -18 28 -100l152 -434q23 -68 39 -68q14 0 45 49l240 379q90 139 90 168q0 18 -9.5 26.5t-35.5 20.5l-95 41l9 45h446l-8 -45l-58 -27q-12 -6 -21 -11t-16.5 -9t-15.5 -10l-12 -9 q-4 -3 -12.5 -12.5t-11.5 -12.5t-11 -15.5t-12 -16.5t-15.5 -20.5t-15.5 -22.5l-387 -551q-74 -106 -88 -190l-45 -256q2 -14 -2 -22.5t3 -16.5t7 -11t12.5 -8.5t16.5 -7.5t20.5 -7t24.5 -9l104 -37l-8 -45h-608l8 45l121 41q49 14 64.5 29.5t23.5 58.5l47 246q14 72 14 106 q0 23 -32 111l-203 522q-4 10 -11.5 30.5t-10.5 28t-10 20.5t-14 20.5t-17.5 16.5t-24.5 15zM561 1601q0 47 32 80t85 33q41 0 68.5 -24.5t27.5 -69.5q0 -51 -33.5 -85t-78.5 -34q-101 0 -101 100zM975 1601q0 47 31.5 80t85.5 33q41 0 68.5 -24.5t27.5 -69.5q0 -51 -34 -85 t-79 -34q-100 0 -100 100z" />
<glyph unicode="&#x2c6;" horiz-adv-x="606" d="M139 1137l273 342h90l172 -342l-45 -31l-148 188q-31 39 -49 39t-49 -30l-201 -197z" />
<glyph unicode="&#x2da;" horiz-adv-x="606" d="M274 1272q0 92 64.5 148.5t150.5 56.5q195 0 195 -156q0 -102 -64.5 -158.5t-162.5 -56.5q-82 0 -132.5 41t-50.5 125zM377 1288q0 -117 94 -117q51 0 81 42t30 98q0 100 -93 100q-53 0 -82.5 -38t-29.5 -85z" />
<glyph unicode="&#x2dc;" horiz-adv-x="606" d="M88 1178q117 178 207 178q47 0 145 -29q92 -31 142 -31q16 0 31.5 3.5t30.5 10.5t25.5 12t25 16.5t19.5 16.5t19 17l12 12l35 -26q-2 -2 -15 -22.5t-23.5 -33t-28 -35t-32.5 -35.5t-35.5 -28.5t-42 -22.5t-42.5 -7q-47 0 -139 30q-102 29 -139 29q-29 0 -52.5 -6 t-47 -24.5t-31 -25t-31.5 -30.5z" />
<glyph unicode="&#x3bc;" horiz-adv-x="1212" d="M23 -342q0 10 6 39l250 1126q8 37 -11.5 57.5t-81.5 20.5q-53 0 -80 -2l11 47q229 72 293 72q31 0 56.5 -27.5t25.5 -50.5q0 -41 -17 -115l-119 -559q-14 -70 -14 -90q0 -25 2 -38t12.5 -31.5t36 -26.5t66.5 -8q115 0 181.5 70.5t107.5 254.5l94 430q8 37 -20.5 55.5 t-104.5 18.5q-8 0 -21.5 -1t-19.5 -1l8 47q31 8 81 23.5t71.5 21.5t52.5 13.5t50 10.5t38 3q41 0 63.5 -30t22.5 -54q0 -14 -16 -80l-119 -481q-29 -119 -29 -170q0 -39 25.5 -72t81.5 -33q47 0 182 68l-10 -57q-170 -135 -291 -136q-43 0 -98.5 48.5t-71.5 48.5 q-12 0 -113.5 -48.5t-197.5 -48.5q-61 0 -107 25l-49 -231q-14 -68 -14 -103q0 -16 2 -25.5t11 -15.5t14 -7t24 -7l-4 -27q-113 -35 -177 -35q-25 0 -54 38t-29 73z" />
<glyph unicode="&#x2000;" horiz-adv-x="925" />
<glyph unicode="&#x2001;" horiz-adv-x="1853" />
<glyph unicode="&#x2002;" horiz-adv-x="925" />
<glyph unicode="&#x2003;" horiz-adv-x="1853" />
<glyph unicode="&#x2004;" horiz-adv-x="616" />
<glyph unicode="&#x2005;" horiz-adv-x="462" />
<glyph unicode="&#x2006;" horiz-adv-x="307" />
<glyph unicode="&#x2007;" horiz-adv-x="307" />
<glyph unicode="&#x2008;" horiz-adv-x="231" />
<glyph unicode="&#x2009;" horiz-adv-x="370" />
<glyph unicode="&#x200a;" horiz-adv-x="102" />
<glyph unicode="&#x2010;" horiz-adv-x="606" d="M47 481l25 133h495l-24 -133h-496z" />
<glyph unicode="&#x2011;" horiz-adv-x="606" d="M47 481l25 133h495l-24 -133h-496z" />
<glyph unicode="&#x2012;" horiz-adv-x="606" d="M47 481l25 133h495l-24 -133h-496z" />
<glyph unicode="&#x2013;" d="M47 481l25 133h989l-25 -133h-989z" />
<glyph unicode="&#x2014;" horiz-adv-x="2009" d="M47 481l25 133h1898l-24 -133h-1899z" />
<glyph unicode="&#x2018;" horiz-adv-x="606" d="M293 1102q0 121 94 193.5t223 103.5l19 -49q-162 -68 -162 -160q0 -61 27.5 -89t80.5 -42l-8 -35l-80 -45q-49 -27 -71 -27q-41 0 -82 40t-41 110z" />
<glyph unicode="&#x2019;" horiz-adv-x="606" d="M266 1001q162 68 162 160q0 61 -27.5 89t-81.5 42l9 35l80 45q49 27 71 27q41 0 82 -40t41 -110q0 -121 -94 -193.5t-223 -103.5z" />
<glyph unicode="&#x201a;" horiz-adv-x="606" d="M143 -133q162 68 162 160q0 61 -27.5 88.5t-80.5 42.5l8 35l80 45q49 27 71 26q41 0 82 -40t41 -109q0 -121 -94 -194t-223 -103z" />
<glyph unicode="&#x201c;" horiz-adv-x="909" d="M252 1102q0 121 94 193.5t223 103.5l19 -49q-162 -68 -162 -160q0 -61 27.5 -89t81.5 -42l-9 -35l-80 -45q-49 -27 -71 -27q-41 0 -82 40t-41 110zM629 1102q0 121 94 193.5t223 103.5l19 -49q-162 -68 -162 -160q0 -61 27.5 -89t80.5 -42l-8 -35l-80 -45 q-49 -27 -71 -27q-41 0 -82 40t-41 110z" />
<glyph unicode="&#x201d;" horiz-adv-x="909" d="M211 1001q162 68 162 160q0 61 -28 89t-81 42l8 35l80 45q49 27 72 27q41 0 82 -40t41 -110q0 -121 -94.5 -193.5t-223.5 -103.5zM588 1001q162 68 162 160q0 61 -28 89t-81 42l8 35l80 45q49 27 72 27q41 0 82 -40t41 -110q0 -121 -94.5 -193.5t-223.5 -103.5z" />
<glyph unicode="&#x201e;" horiz-adv-x="909" d="M6 -133q162 68 162 160q0 61 -27.5 88.5t-81.5 42.5l9 35l79 45q49 27 72 26q41 0 82 -40t41 -109q0 -121 -94 -194t-223 -103zM383 -133q162 68 162 160q0 61 -28 88.5t-81 42.5l8 35l80 45q49 27 72 26q41 0 82 -40t41 -109q0 -121 -94.5 -194t-223.5 -103z" />
<glyph unicode="&#x2022;" horiz-adv-x="1024" d="M195 737q0 154 108.5 263.5t261.5 109.5q152 0 261.5 -109.5t109.5 -263.5q0 -152 -109.5 -260t-261.5 -108q-154 0 -262 108t-108 260z" />
<glyph unicode="&#x2026;" horiz-adv-x="2009" d="M141 113q0 45 33 77.5t80 32.5q45 0 78 -31.5t33 -78.5t-33 -80t-78 -33t-79 33t-34 80zM821 113q0 45 33 77.5t80 32.5q45 0 77.5 -31.5t32.5 -78.5t-32.5 -80t-77.5 -33t-79 33t-34 80zM1501 113q0 45 33 77.5t80 32.5q45 0 77.5 -31.5t32.5 -78.5t-32.5 -80t-77.5 -33 t-79 33t-34 80z" />
<glyph unicode="&#x202f;" horiz-adv-x="370" />
<glyph unicode="&#x2039;" horiz-adv-x="417" d="M16 528l11 52l368 389l47 -31l-223 -328q-31 -45 -31 -61q0 -25 21 -72l139 -325l-47 -27z" />
<glyph unicode="&#x203a;" horiz-adv-x="417" d="M0 156l223 327q31 45 31 62q0 25 -21 71l-139 326l47 27l285 -404l-10 -51l-369 -389z" />
<glyph unicode="&#x205f;" horiz-adv-x="462" />
<glyph unicode="&#x2122;" horiz-adv-x="1251" d="M123 1163l10 209h479l11 -209h-37q-4 10 -13.5 36t-12.5 33t-11 24.5t-13.5 23.5t-16.5 17.5t-23.5 16.5t-29.5 10t-40 9v-391q0 -33 3 -51.5t19.5 -27.5t27.5 -11t48 -6v-35h-313v35q37 4 48 5t30.5 10t24.5 28.5t5 52.5v391q-25 -4 -43 -9t-33.5 -16.5t-23.5 -16.5 t-18.5 -25.5t-12.5 -25.5t-13 -37t-15 -40h-37zM649 811v35q33 6 45.5 9t26.5 12.5t18 26.5t4 48v320q0 51 -10 59t-59 12v39h205l112 -371h4l129 371h222v-39q-63 -8 -74 -22q-12 -16 -12 -62v-307q0 -61 13 -75.5t62 -20.5v-35h-254v35q31 6 42.5 11t20.5 24.5t9 60.5v377 h-4l-172 -508h-33l-149 489h-4v-358q0 -41 7 -60.5t16 -24.5t36 -11v-35h-201z" />
<glyph unicode="&#xe000;" horiz-adv-x="1020" d="M0 1020h1020v-1020h-1020v1020z" />
<glyph unicode="&#xfb01;" horiz-adv-x="1288" d="M37 -451q84 336 139 678q10 57 37 201.5t44 252t17 155.5q0 33 -7 42t-38 17q-6 0 -10 2l-113 31l7 41l110 16q59 8 72.5 27.5t30 96.5t59.5 163q59 117 157.5 167t202.5 50q63 0 100.5 -24.5t37.5 -61.5q0 -27 -17 -60l-57 -118h-33q-35 166 -139 166q-43 0 -70.5 -24 t-41 -72t-17.5 -99t-4 -131q0 -45 18.5 -59.5t67.5 -14.5h186q137 0 223 15q94 12 99 12q12 0 40.5 -23.5t28.5 -52.5q0 -25 -41 -172l-104 -389q-33 -125 -33 -164q0 -49 18.5 -77.5t36 -35t35.5 -6.5q72 0 199 64l-14 -58q-188 -131 -308 -131q-59 0 -114.5 52.5 t-55.5 109.5q0 55 37 197l90 338q31 88 31 133q0 74 -35 91t-147 17h-178q-33 0 -50.5 -4t-28.5 -22.5t-13.5 -30.5t-10.5 -57l-129 -572q-43 -193 -62.5 -271.5t-53 -172.5t-68.5 -133l-96 -105zM1032 1296q0 55 36 89t93 34q117 0 117 -102q0 -61 -38 -95t-91 -34 t-85 27.5t-32 80.5z" />
<glyph unicode="&#xfb02;" horiz-adv-x="1288" d="M37 -451q84 336 139 678q10 57 37 201.5t44 252t17 155.5q0 33 -7 42t-38 17q-6 0 -10 2l-113 31l7 41l110 16q59 8 72.5 27.5t30 96.5t59.5 163q59 117 157.5 167t202.5 50q63 0 100.5 -24.5t37.5 -61.5q0 -27 -17 -60l-57 -118h-33q-35 166 -139 166q-43 0 -70.5 -24 t-41 -72t-17.5 -99t-4 -131q0 -35 11 -52.5t23.5 -20.5t47.5 -9l168 -31l-9 -41l-180 -26q-49 -8 -60 -22.5t-24 -65.5l-129 -572q-43 -193 -62.5 -271.5t-53 -172.5t-68.5 -133l-96 -105zM782 162q0 29 13 84l239 1054q0 37 -20 43l-84 23l6 33q41 8 150.5 42t132.5 34 q10 0 26.5 -14.5t16.5 -26.5q0 -23 -17 -88l-215 -895q-45 -190 -45 -230q0 -123 96 -123q18 0 40 5.5t36 10.5t37 16t32 16.5t30.5 19.5t23.5 16l-14 -63q-188 -145 -299 -146q-68 0 -126.5 47.5t-58.5 141.5z" />
<glyph unicode="&#xfb03;" horiz-adv-x="1970" d="M1446 891l10 45q274 82 322 82q12 0 40.5 -23.5t28.5 -52.5q0 -20 -41 -172l-104 -389q-35 -133 -35 -164q0 -49 19.5 -77.5t37 -35t35.5 -6.5q72 0 199 64l-14 -58q-188 -131 -308 -131q-59 0 -115.5 52.5t-56.5 109.5q0 51 39 197l90 338q31 115 31 133q0 57 -43 71 q-18 7 -135 17zM1714 1296q0 55 36 89t93 34q117 0 117 -102q0 -61 -38 -95t-91 -34t-85 27.5t-32 80.5zM719 -451q84 336 139 678q10 57 37 201.5t44 252t17 155.5q0 33 -7 42t-38 17q-6 0 -10 2l-113 31l7 41l110 16q59 8 72.5 27.5t30 96.5t59.5 163q59 117 157.5 167 t202.5 50q63 0 100.5 -24.5t37.5 -61.5q0 -27 -17 -60l-57 -118h-33q-35 166 -139 166q-43 0 -70.5 -24t-41 -72t-17.5 -99t-4 -131q0 -25 3 -40t19.5 -23.5t22.5 -9.5t37 -7l168 -33l-9 -41l-180 -24q-27 -4 -41 -7t-23 -19.5t-10.5 -23t-9.5 -40.5l-129 -572 q-43 -193 -62.5 -271.5t-53 -172.5t-68.5 -133l-96 -105zM37 -451q84 336 139 678q10 57 37 201.5t44 252t17 155.5q0 33 -7 42t-38 17q-6 0 -10 2l-113 31l7 41l110 16q59 8 72.5 27.5t30 96.5t59.5 163q59 117 157.5 167t202.5 50q63 0 100.5 -24.5t37.5 -61.5 q0 -27 -17 -60l-57 -118h-33q-35 166 -139 166q-43 0 -70.5 -24t-41 -72t-17.5 -99t-4 -131q0 -25 3 -40t19.5 -23.5t22.5 -9.5t37 -7l168 -33l-9 -41l-180 -24q-27 -4 -41 -7t-23 -19.5t-10.5 -23t-9.5 -40.5l-129 -572q-43 -193 -62.5 -271.5t-53 -172.5t-68.5 -133 l-96 -105z" />
<glyph unicode="&#xfb04;" horiz-adv-x="1970" d="M1466 162q0 29 13 84l207 909q18 80 18 121q0 31 -12.5 44t-51.5 23l-83 23l6 33q43 8 177 42t161 34q10 0 26.5 -14.5t16.5 -26.5q0 -23 -17 -88l-217 -895q-41 -172 -41 -230q0 -123 92 -123q70 0 201 84l-14 -63q-188 -145 -299 -146q-68 0 -125.5 47.5t-57.5 141.5z M719 -451q84 336 139 678q10 57 37 201.5t44 252t17 155.5q0 33 -7 42t-38 17q-6 0 -10 2l-113 31l7 41l110 16q59 8 72.5 27.5t30 96.5t59.5 163q59 117 157.5 167t202.5 50q63 0 100.5 -24.5t37.5 -61.5q0 -27 -17 -60l-57 -118h-33q-35 166 -139 166q-43 0 -70.5 -24 t-41 -72t-17.5 -99t-4 -131q0 -25 3 -40t19.5 -23.5t22.5 -9.5t37 -7l168 -33l-9 -41l-180 -24q-27 -4 -41 -7t-23 -19.5t-10.5 -23t-9.5 -40.5l-129 -572q-43 -193 -62.5 -271.5t-53 -172.5t-68.5 -133l-96 -105zM37 -451q84 336 139 678q10 57 37 201.5t44 252t17 155.5 q0 33 -7 42t-38 17q-6 0 -10 2l-113 31l7 41l110 16q59 8 72.5 27.5t30 96.5t59.5 163q59 117 157.5 167t202.5 50q63 0 100.5 -24.5t37.5 -61.5q0 -27 -17 -60l-57 -118h-33q-35 166 -139 166q-43 0 -70.5 -24t-41 -72t-17.5 -99t-4 -131q0 -25 3 -40t19.5 -23.5t22.5 -9.5 t37 -7l168 -33l-9 -41l-180 -24q-27 -4 -41 -7t-23 -19.5t-10.5 -23t-9.5 -40.5l-129 -572q-43 -193 -62.5 -271.5t-53 -172.5t-68.5 -133l-96 -105z" />
</font>
</defs>
</svg>
